<svg width="115" height="115" viewBox="0 0 115 115" fill="none" xmlns="http://www.w3.org/2000/svg">
<path d="M90.9648 0H24.035C10.7608 0 0 10.7608 0 24.035V90.9648C0 104.239 10.7608 115 24.035 115H90.9648C104.239 115 115 104.239 115 90.9648V24.035C115 10.7608 104.239 0 90.9648 0V0ZM35.4019 26.3629C30.0943 26.3629 25.7917 22.0603 25.7917 16.753C25.7917 11.4454 30.0943 7.14284 35.4019 7.14284C40.7095 7.14284 45.012 11.4454 45.012 16.753C45.012 22.0603 40.7095 26.3629 35.4019 26.3629ZM79.5979 26.3629C74.2903 26.3629 69.9877 22.0603 69.9877 16.753C69.9877 11.4454 74.2903 7.14284 79.5979 7.14284C84.9055 7.14284 89.208 11.4454 89.208 16.753C89.208 22.0603 84.9055 26.3629 79.5979 26.3629Z" fill="url(#paint0_linear_766_1100)"/>
<path d="M0 27.0591H115V55.5114H0V27.0591Z" fill="url(#paint1_linear_766_1100)"/>
<path d="M0 77.71V90.9647C0 104.239 10.7608 115 24.0349 115H90.9648C104.239 115 115 104.239 115 90.9647V77.71H0Z" fill="url(#paint2_linear_766_1100)"/>
<path d="M90.9648 0H24.035C10.7608 0 0 10.7608 0 24.035V33.5055H115V24.035C115 10.7608 104.239 0 90.9648 0ZM35.4019 26.3629C30.0943 26.3629 25.7917 22.0603 25.7917 16.753C25.7917 11.4454 30.0943 7.14284 35.4019 7.14284C40.7095 7.14284 45.012 11.4454 45.012 16.753C45.012 22.0603 40.7095 26.3629 35.4019 26.3629ZM79.5979 26.3629C74.2903 26.3629 69.9877 22.0603 69.9877 16.753C69.9877 11.4454 74.2903 7.14284 79.5979 7.14284C84.9055 7.14284 89.208 11.4454 89.208 16.753C89.208 22.0603 84.9055 26.3629 79.5979 26.3629Z" fill="url(#paint3_linear_766_1100)"/>
<path d="M35.2777 57.5902L91.6795 114.989C91.4427 114.995 91.2037 115 90.9647 115H60.1177L16.9815 70.707L10.5325 64.0844C9.25844 63.1666 8.42188 61.6513 8.42188 59.9331V51.0713C8.42188 48.2753 10.6294 46.0068 13.3533 46.0068H21.9828C23.656 46.0068 25.1352 46.8637 26.0259 48.176L35.2777 57.5902Z" fill="url(#paint4_linear_766_1100)"/>
<path d="M109.621 106.118C108.949 106.943 108.226 107.723 107.452 108.452C103.31 112.359 97.7786 114.811 91.6791 114.989C91.4424 114.995 91.2033 115 90.9643 115H86.9731L43.8369 70.707L37.3879 64.0844C36.1139 63.1666 35.2773 61.6513 35.2773 59.9331V51.0713C35.2773 48.2753 37.4849 46.0068 40.2088 46.0068H48.8383C50.5114 46.0068 51.9907 46.8637 52.8813 48.176L62.1332 57.6241L109.621 106.118Z" fill="url(#paint5_linear_766_1100)"/>
<path d="M114.999 84.3852V90.965C114.999 96.7082 112.983 101.985 109.621 106.118C108.949 106.943 108.225 107.723 107.452 108.452L70.6924 70.707L64.2434 64.0844C62.9694 63.1666 62.1328 61.6513 62.1328 59.9331V51.0713C62.1328 48.2753 64.3404 46.0068 67.0643 46.0068H75.6938C77.3669 46.0068 78.8461 46.8637 79.7368 48.176L88.9887 57.6759L114.999 84.3852Z" fill="url(#paint6_linear_766_1100)"/>
<path d="M115 56.8078V88.6244L97.5489 70.707L91.0999 64.0844C89.8258 63.1666 88.9893 61.6513 88.9893 59.9331V51.0713C88.9893 48.2753 91.1968 46.0068 93.9207 46.0068H102.55C104.223 46.0068 105.703 46.8637 106.593 48.176L115 56.8078Z" fill="url(#paint7_linear_766_1100)"/>
<path d="M60.3634 115H29.3766L16.9815 102.273L10.5325 95.6505C9.25844 94.735 8.42188 93.2174 8.42188 91.4992V82.6374C8.42188 79.8414 10.6294 77.5752 13.3533 77.5752H21.9828C23.656 77.5752 25.1352 78.4321 26.0259 79.7422L35.2777 89.242L60.3634 115Z" fill="url(#paint8_linear_766_1100)"/>
<path d="M87.2189 115H56.2321L43.8369 102.273L37.3879 95.6505C36.1139 94.735 35.2773 93.2174 35.2773 91.4992V82.6374C35.2773 79.8414 37.4849 77.5752 40.2088 77.5752H48.8383C50.5114 77.5752 51.9906 78.4321 52.8813 79.7422L62.1332 89.242L87.2189 115Z" fill="url(#paint9_linear_766_1100)"/>
<path d="M107.578 108.33C107.535 108.373 107.495 108.411 107.452 108.452C106.775 109.09 106.061 109.689 105.314 110.246C101.488 113.099 96.7816 114.84 91.6788 114.989C91.442 114.995 91.203 115 90.964 115H83.0876L70.6924 102.273L64.2434 95.6505C62.9694 94.735 62.1328 93.2174 62.1328 91.4992V82.6374C62.1328 79.8414 64.3404 77.5752 67.0643 77.5752H75.6938C77.3669 77.5752 78.8461 78.4321 79.7368 79.7422L88.9887 89.242L107.578 108.33Z" fill="url(#paint10_linear_766_1100)"/>
<path d="M21.1624 95.6522H12.6637C9.9046 95.6522 7.66797 93.4156 7.66797 90.6565V81.6617C7.66797 78.9026 9.9046 76.666 12.6637 76.666H21.1624C23.9215 76.666 26.1581 78.9026 26.1581 81.6617V90.6565C26.1581 93.4156 23.9213 95.6522 21.1624 95.6522Z" fill="url(#paint11_linear_766_1100)"/>
<path d="M47.9954 95.6527H39.4967C36.7376 95.6527 34.501 93.4161 34.501 90.657V81.6622C34.501 78.9031 36.7376 76.6665 39.4967 76.6665H47.9954C50.7545 76.6665 52.9911 78.9031 52.9911 81.6622V90.657C52.9911 93.4161 50.7543 95.6527 47.9954 95.6527Z" fill="url(#paint12_linear_766_1100)"/>
<path d="M74.8274 95.6522H66.3287C63.5696 95.6522 61.333 93.4156 61.333 90.6565V81.6617C61.333 78.9026 63.5696 76.666 66.3287 76.666H74.8274C77.5865 76.666 79.8232 78.9026 79.8232 81.6617V90.6565C79.8232 93.4156 77.5863 95.6522 74.8274 95.6522Z" fill="url(#paint13_linear_766_1100)"/>
<path d="M21.1624 63.7079H12.6637C9.9046 63.7079 7.66797 61.4713 7.66797 58.7122V49.7174C7.66797 46.9583 9.9046 44.7217 12.6637 44.7217H21.1624C23.9215 44.7217 26.1581 46.9583 26.1581 49.7174V58.7122C26.1581 61.4713 23.9213 63.7079 21.1624 63.7079Z" fill="url(#paint14_linear_766_1100)"/>
<path d="M47.9954 63.7079H39.4967C36.7376 63.7079 34.501 61.4713 34.501 58.7122V49.7174C34.501 46.9583 36.7376 44.7217 39.4967 44.7217H47.9954C50.7545 44.7217 52.9911 46.9583 52.9911 49.7174V58.7122C52.9911 61.4713 50.7543 63.7079 47.9954 63.7079Z" fill="url(#paint15_linear_766_1100)"/>
<path d="M74.8274 63.7079H66.3287C63.5696 63.7079 61.333 61.4713 61.333 58.7122V49.7174C61.333 46.9583 63.5696 44.7217 66.3287 44.7217H74.8274C77.5865 44.7217 79.8232 46.9583 79.8232 49.7174V58.7122C79.8232 61.4713 77.5863 63.7079 74.8274 63.7079Z" fill="url(#paint16_linear_766_1100)"/>
<path d="M101.662 63.7079H93.1637C90.4046 63.7079 88.168 61.4713 88.168 58.7122V49.7174C88.168 46.9583 90.4046 44.7217 93.1637 44.7217H101.662C104.421 44.7217 106.658 46.9583 106.658 49.7174V58.7122C106.658 61.4713 104.421 63.7079 101.662 63.7079Z" fill="url(#paint17_linear_766_1100)"/>
<defs>
<linearGradient id="paint0_linear_766_1100" x1="8.49803" y1="8.49803" x2="85.1544" y2="85.1544" gradientUnits="userSpaceOnUse">
<stop stop-color="#EEF4FF"/>
<stop offset="1" stop-color="#CFE7FD"/>
</linearGradient>
<linearGradient id="paint1_linear_766_1100" x1="57.4999" y1="48.0729" x2="57.4999" y2="34.7859" gradientUnits="userSpaceOnUse">
<stop stop-color="#8AAADC" stop-opacity="0"/>
<stop offset="1" stop-color="#8AAADC"/>
</linearGradient>
<linearGradient id="paint2_linear_766_1100" x1="57.4999" y1="85.0095" x2="57.4999" y2="121.314" gradientUnits="userSpaceOnUse">
<stop stop-color="#8AAADC" stop-opacity="0"/>
<stop offset="1" stop-color="#8AAADC"/>
</linearGradient>
<linearGradient id="paint3_linear_766_1100" x1="57.4999" y1="7.56586" x2="57.4999" y2="33.2875" gradientUnits="userSpaceOnUse">
<stop stop-color="#0BBBEF"/>
<stop offset="1" stop-color="#19708A"/>
</linearGradient>
<linearGradient id="paint4_linear_766_1100" x1="35.7909" y1="74.2431" x2="11.9589" y2="50.4113" gradientUnits="userSpaceOnUse">
<stop stop-color="#8AAADC" stop-opacity="0"/>
<stop offset="1" stop-color="#8AAADC"/>
</linearGradient>
<linearGradient id="paint5_linear_766_1100" x1="59.5407" y1="71.1377" x2="38.5188" y2="50.1157" gradientUnits="userSpaceOnUse">
<stop stop-color="#8AAADC" stop-opacity="0"/>
<stop offset="1" stop-color="#8AAADC"/>
</linearGradient>
<linearGradient id="paint6_linear_766_1100" x1="90.1258" y1="74.7816" x2="64.6322" y2="49.2879" gradientUnits="userSpaceOnUse">
<stop stop-color="#8AAADC" stop-opacity="0"/>
<stop offset="1" stop-color="#8AAADC"/>
</linearGradient>
<linearGradient id="paint7_linear_766_1100" x1="116.612" y1="74.152" x2="95.1894" y2="52.7293" gradientUnits="userSpaceOnUse">
<stop stop-color="#8AAADC" stop-opacity="0"/>
<stop offset="1" stop-color="#8AAADC"/>
</linearGradient>
<linearGradient id="paint8_linear_766_1100" x1="39.5332" y1="109.14" x2="2.54174" y2="72.1484" gradientUnits="userSpaceOnUse">
<stop stop-color="#8AAADC" stop-opacity="0"/>
<stop offset="1" stop-color="#8AAADC"/>
</linearGradient>
<linearGradient id="paint9_linear_766_1100" x1="61.5293" y1="104.28" x2="33.3406" y2="76.0915" gradientUnits="userSpaceOnUse">
<stop stop-color="#8AAADC" stop-opacity="0"/>
<stop offset="1" stop-color="#8AAADC"/>
</linearGradient>
<linearGradient id="paint10_linear_766_1100" x1="91.4927" y1="107.388" x2="60.4495" y2="76.3449" gradientUnits="userSpaceOnUse">
<stop stop-color="#8AAADC" stop-opacity="0"/>
<stop offset="1" stop-color="#8AAADC"/>
</linearGradient>
<linearGradient id="paint11_linear_766_1100" x1="10.2868" y1="79.5329" x2="23.3882" y2="92.6343" gradientUnits="userSpaceOnUse">
<stop stop-color="#0BBBEF"/>
<stop offset="1" stop-color="#138FB4"/>
</linearGradient>
<linearGradient id="paint12_linear_766_1100" x1="37.1198" y1="79.5334" x2="50.2212" y2="92.6348" gradientUnits="userSpaceOnUse">
<stop stop-color="#0BBBEF"/>
<stop offset="1" stop-color="#138FB4"/>
</linearGradient>
<linearGradient id="paint13_linear_766_1100" x1="63.9518" y1="79.5329" x2="77.0532" y2="92.6343" gradientUnits="userSpaceOnUse">
<stop stop-color="#FF5757"/>
<stop offset="1" stop-color="#97463C"/>
</linearGradient>
<linearGradient id="paint14_linear_766_1100" x1="10.2868" y1="47.5886" x2="23.3882" y2="60.69" gradientUnits="userSpaceOnUse">
<stop stop-color="#0BBBEF"/>
<stop offset="1" stop-color="#138FB4"/>
</linearGradient>
<linearGradient id="paint15_linear_766_1100" x1="37.1198" y1="47.5886" x2="50.2212" y2="60.69" gradientUnits="userSpaceOnUse">
<stop stop-color="#FF5757"/>
<stop offset="1" stop-color="#97463C"/>
</linearGradient>
<linearGradient id="paint16_linear_766_1100" x1="63.9518" y1="47.5886" x2="77.0532" y2="60.69" gradientUnits="userSpaceOnUse">
<stop stop-color="#0BBBEF"/>
<stop offset="1" stop-color="#138FB4"/>
</linearGradient>
<linearGradient id="paint17_linear_766_1100" x1="90.7868" y1="47.5886" x2="103.888" y2="60.69" gradientUnits="userSpaceOnUse">
<stop stop-color="#0BBBEF"/>
<stop offset="1" stop-color="#138FB4"/>
</linearGradient>
</defs>
</svg>
