<svg width="99" height="115" viewBox="0 0 99 115" fill="none" xmlns="http://www.w3.org/2000/svg">
<path d="M70.3714 0H3.83536C1.71711 0 0 1.71711 0 3.83513V96.6209C0 99.872 2.63553 102.508 5.88664 102.508H58.3307C67.0986 102.508 74.2065 95.3996 74.2065 86.6317V3.83513C74.2065 1.71711 72.4894 0 70.3714 0V0Z" fill="url(#paint0_linear_766_1164)"/>
<path d="M0 59.418V96.6211C0 99.8722 2.63553 102.508 5.88664 102.508H58.3307C67.0986 102.508 74.2065 95.3999 74.2065 86.6319V59.418H0Z" fill="url(#paint1_linear_766_1164)"/>
<path d="M70.6012 115H18.1571C14.906 115 12.2705 112.364 12.2705 109.113V16.3278C12.2705 14.2098 13.9876 12.4927 16.1056 12.4927H82.6417C84.7597 12.4927 86.4768 14.2098 86.4768 16.3278V99.1241C86.477 107.892 79.3691 115 70.6012 115Z" fill="url(#paint2_linear_766_1164)"/>
<path d="M74.2528 85.5401H24.495C22.6311 85.5401 21.1201 84.0291 21.1201 82.1652V76.8083C21.1201 74.9444 22.6311 73.4333 24.495 73.4333H74.2528C76.1167 73.4333 77.6277 74.9444 77.6277 76.8083V82.1652C77.6277 84.0294 76.1167 85.5401 74.2528 85.5401Z" fill="white"/>
<path d="M74.2528 66.5075H24.495C22.6311 66.5075 21.1201 64.9965 21.1201 63.1326V24.4904C21.1201 22.6265 22.6311 21.1155 24.495 21.1155H74.2528C76.1167 21.1155 77.6277 22.6265 77.6277 24.4904V63.1326C77.6277 64.9965 76.1167 66.5075 74.2528 66.5075Z" fill="white"/>
<path d="M12.2715 87.6482V109.113C12.2715 112.364 14.907 115 18.1581 115H70.6021C79.3701 115 86.478 107.892 86.478 99.1241V87.6482H12.2715Z" fill="url(#paint3_linear_766_1164)"/>
<path d="M24.0439 96.3014V109.113C24.0439 112.364 21.4083 115 18.1572 115H82.3743C91.1423 115 98.2502 107.892 98.2502 99.1241V96.3014C98.2502 94.1834 96.533 92.4663 94.415 92.4663H27.879C25.761 92.4663 24.0439 94.1834 24.0439 96.3014Z" fill="url(#paint4_linear_766_1164)"/>
<path d="M24.0439 96.3014V109.113C24.0439 112.364 21.4083 115 18.1572 115H82.3743C91.1423 115 98.2502 107.892 98.2502 99.1241V96.3014C98.2502 94.1834 96.533 92.4663 94.415 92.4663H27.879C25.761 92.4663 24.0439 94.1834 24.0439 96.3014Z" fill="url(#paint5_linear_766_1164)"/>
<g filter="url(#filter0_ii_766_1164)">
<path d="M36.9433 49.5134L31 59.8157L37.9367 59.4474L41.0881 65.639L46.5861 56.1075C42.6467 55.0884 39.264 52.7163 36.9433 49.5134Z" fill="#FF5757"/>
<path d="M64.9638 49.4619C62.6602 52.6733 59.2775 55.0541 55.3467 56.0903L60.8618 65.6389L64.0132 59.4473L70.9499 59.8155L64.9638 49.4619Z" fill="#FF5757"/>
</g>
<g filter="url(#filter1_di_766_1164)">
<path d="M50.9274 57.5463C60.4671 57.5463 68.2006 49.8128 68.2006 40.2731C68.2006 30.7334 60.4671 23 50.9274 23C41.3877 23 33.6543 30.7334 33.6543 40.2731C33.6543 49.8128 41.3877 57.5463 50.9274 57.5463Z" fill="#FFD15C"/>
</g>
<g filter="url(#filter2_i_766_1164)">
<path d="M50.9148 52.7934C57.8295 52.7934 63.435 47.1879 63.435 40.2732C63.435 33.3584 57.8295 27.7529 50.9148 27.7529C44 27.7529 38.3945 33.3584 38.3945 40.2732C38.3945 47.1879 44 52.7934 50.9148 52.7934Z" fill="#F8B64C"/>
</g>
<g filter="url(#filter3_d_766_1164)">
<path d="M59.496 38.9201C59.8813 38.5433 59.6672 37.8839 59.1363 37.8068L54.195 37.0875C53.9809 37.0532 53.8011 36.9247 53.7069 36.7278L51.4974 32.2489C51.2576 31.7608 50.5639 31.7608 50.3242 32.2489L48.1233 36.7278C48.0291 36.9162 47.8407 37.0532 47.6351 37.0875L42.6938 37.8068C42.1629 37.8839 41.9488 38.5433 42.3341 38.9201L45.9052 42.4056C46.0594 42.5597 46.1279 42.7738 46.0936 42.9793L45.2544 47.8949C45.1602 48.4259 45.7254 48.837 46.205 48.58L50.6239 46.2593C50.8123 46.1565 51.0435 46.1565 51.2319 46.2593L55.6508 48.58C56.1304 48.8284 56.687 48.4259 56.6014 47.8949L55.7536 42.9793C55.7193 42.7652 55.7879 42.5511 55.942 42.4056L59.496 38.9201Z" fill="#FAFF00"/>
</g>
<defs>
<filter id="filter0_ii_766_1164" x="31" y="49.4619" width="39.9502" height="19.177" filterUnits="userSpaceOnUse" color-interpolation-filters="sRGB">
<feFlood flood-opacity="0" result="BackgroundImageFix"/>
<feBlend mode="normal" in="SourceGraphic" in2="BackgroundImageFix" result="shape"/>
<feColorMatrix in="SourceAlpha" type="matrix" values="0 0 0 0 0 0 0 0 0 0 0 0 0 0 0 0 0 0 127 0" result="hardAlpha"/>
<feOffset dy="3"/>
<feGaussianBlur stdDeviation="1.5"/>
<feComposite in2="hardAlpha" operator="arithmetic" k2="-1" k3="1"/>
<feColorMatrix type="matrix" values="0 0 0 0 0 0 0 0 0 0 0 0 0 0 0 0 0 0 0.25 0"/>
<feBlend mode="normal" in2="shape" result="effect1_innerShadow_766_1164"/>
<feColorMatrix in="SourceAlpha" type="matrix" values="0 0 0 0 0 0 0 0 0 0 0 0 0 0 0 0 0 0 127 0" result="hardAlpha"/>
<feOffset/>
<feGaussianBlur stdDeviation="1.5"/>
<feComposite in2="hardAlpha" operator="arithmetic" k2="-1" k3="1"/>
<feColorMatrix type="matrix" values="0 0 0 0 0 0 0 0 0 0 0 0 0 0 0 0 0 0 0.25 0"/>
<feBlend mode="normal" in2="effect1_innerShadow_766_1164" result="effect2_innerShadow_766_1164"/>
</filter>
<filter id="filter1_di_766_1164" x="32.6543" y="22" width="36.5459" height="37.5464" filterUnits="userSpaceOnUse" color-interpolation-filters="sRGB">
<feFlood flood-opacity="0" result="BackgroundImageFix"/>
<feColorMatrix in="SourceAlpha" type="matrix" values="0 0 0 0 0 0 0 0 0 0 0 0 0 0 0 0 0 0 127 0" result="hardAlpha"/>
<feOffset dy="1"/>
<feGaussianBlur stdDeviation="0.5"/>
<feComposite in2="hardAlpha" operator="out"/>
<feColorMatrix type="matrix" values="0 0 0 0 0.420833 0 0 0 0 0.00526041 0 0 0 0 0.00526041 0 0 0 0.25 0"/>
<feBlend mode="normal" in2="BackgroundImageFix" result="effect1_dropShadow_766_1164"/>
<feBlend mode="normal" in="SourceGraphic" in2="effect1_dropShadow_766_1164" result="shape"/>
<feColorMatrix in="SourceAlpha" type="matrix" values="0 0 0 0 0 0 0 0 0 0 0 0 0 0 0 0 0 0 127 0" result="hardAlpha"/>
<feOffset dy="-1"/>
<feGaussianBlur stdDeviation="1.5"/>
<feComposite in2="hardAlpha" operator="arithmetic" k2="-1" k3="1"/>
<feColorMatrix type="matrix" values="0 0 0 0 1 0 0 0 0 0.6 0 0 0 0 0.00392157 0 0 0 1 0"/>
<feBlend mode="normal" in2="shape" result="effect2_innerShadow_766_1164"/>
</filter>
<filter id="filter2_i_766_1164" x="38.3945" y="27.7529" width="25.04" height="26.0405" filterUnits="userSpaceOnUse" color-interpolation-filters="sRGB">
<feFlood flood-opacity="0" result="BackgroundImageFix"/>
<feBlend mode="normal" in="SourceGraphic" in2="BackgroundImageFix" result="shape"/>
<feColorMatrix in="SourceAlpha" type="matrix" values="0 0 0 0 0 0 0 0 0 0 0 0 0 0 0 0 0 0 127 0" result="hardAlpha"/>
<feOffset dy="1"/>
<feGaussianBlur stdDeviation="4"/>
<feComposite in2="hardAlpha" operator="arithmetic" k2="-1" k3="1"/>
<feColorMatrix type="matrix" values="0 0 0 0 0.996078 0 0 0 0 0.431373 0 0 0 0 0.00392157 0 0 0 1 0"/>
<feBlend mode="normal" in2="shape" result="effect1_innerShadow_766_1164"/>
</filter>
<filter id="filter3_d_766_1164" x="40.1377" y="29.8828" width="21.5547" height="20.7759" filterUnits="userSpaceOnUse" color-interpolation-filters="sRGB">
<feFlood flood-opacity="0" result="BackgroundImageFix"/>
<feColorMatrix in="SourceAlpha" type="matrix" values="0 0 0 0 0 0 0 0 0 0 0 0 0 0 0 0 0 0 127 0" result="hardAlpha"/>
<feOffset/>
<feGaussianBlur stdDeviation="1"/>
<feComposite in2="hardAlpha" operator="out"/>
<feColorMatrix type="matrix" values="0 0 0 0 1 0 0 0 0 0.615686 0 0 0 0 0.00392157 0 0 0 1 0"/>
<feBlend mode="normal" in2="BackgroundImageFix" result="effect1_dropShadow_766_1164"/>
<feBlend mode="normal" in="SourceGraphic" in2="effect1_dropShadow_766_1164" result="shape"/>
</filter>
<linearGradient id="paint0_linear_766_1164" x1="-4.0392" y1="9.51049" x2="42.1651" y2="55.7148" gradientUnits="userSpaceOnUse">
<stop stop-color="#F7E07D"/>
<stop offset="1" stop-color="#E69642"/>
</linearGradient>
<linearGradient id="paint1_linear_766_1164" x1="37.1033" y1="64.7752" x2="37.1033" y2="97.6259" gradientUnits="userSpaceOnUse">
<stop stop-color="#D52C1C" stop-opacity="0"/>
<stop offset="0.28" stop-color="#D12C1E" stop-opacity="0.28"/>
<stop offset="0.5735" stop-color="#C42C23" stop-opacity="0.574"/>
<stop offset="0.8721" stop-color="#AF2B2C" stop-opacity="0.872"/>
<stop offset="1" stop-color="#A42B31"/>
</linearGradient>
<linearGradient id="paint2_linear_766_1164" x1="3.3641" y1="17.1357" x2="98.15" y2="111.922" gradientUnits="userSpaceOnUse">
<stop stop-color="#EEF4FF"/>
<stop offset="1" stop-color="#CFE7FD"/>
</linearGradient>
<linearGradient id="paint3_linear_766_1164" x1="49.3747" y1="88.7955" x2="49.3747" y2="117.214" gradientUnits="userSpaceOnUse">
<stop stop-color="#8AAADC" stop-opacity="0"/>
<stop offset="1" stop-color="#8AAADC"/>
</linearGradient>
<linearGradient id="paint4_linear_766_1164" x1="58.2038" y1="92.4663" x2="58.2038" y2="114.396" gradientUnits="userSpaceOnUse">
<stop stop-color="#EEF4FF"/>
<stop offset="1" stop-color="#CFE7FD"/>
</linearGradient>
<linearGradient id="paint5_linear_766_1164" x1="58.2038" y1="102.824" x2="58.2038" y2="118.408" gradientUnits="userSpaceOnUse">
<stop stop-color="#8AAADC" stop-opacity="0"/>
<stop offset="1" stop-color="#8AAADC"/>
</linearGradient>
</defs>
</svg>
