<svg width="104" height="115" viewBox="0 0 104 115" fill="none" xmlns="http://www.w3.org/2000/svg">
<path d="M73.9931 6.59942V97.8611C73.9931 101.507 71.1603 104.46 67.6638 104.46H6.33189C2.83539 104.46 0 101.504 0 97.8584V26.4824C0 24.2181 0.862015 22.0493 2.3979 20.4479L20.7805 1.27808C20.8185 1.24087 20.8568 1.20119 20.8975 1.16398C20.9152 1.14797 20.9332 1.13219 20.9509 1.11618C21.7316 0.397764 22.7361 0 23.7837 0H67.6638C71.1603 0 73.9931 2.9564 73.9931 6.59942Z" fill="url(#paint0_linear_766_1409)"/>
<path d="M62.8935 0H23.7835C22.7359 0 21.7314 0.397764 20.9507 1.11618C20.9329 1.13219 20.915 1.14797 20.8973 1.16398C20.8566 1.20119 20.8183 1.24087 20.7803 1.27808L2.3979 20.4477C0.862015 22.0491 0 24.2181 0 26.4822V65.5777L62.8935 0Z" fill="url(#paint1_linear_766_1409)"/>
<path d="M77.7711 115H16.4399C12.9429 115 10.1084 112.044 10.1084 108.398V15.8155C10.1084 12.1694 12.9431 9.21387 16.4399 9.21387H77.7711C81.2679 9.21387 84.1026 12.1696 84.1026 15.8155V108.398C84.1026 112.044 81.2679 115 77.7711 115Z" fill="url(#paint2_linear_766_1409)"/>
<path d="M24.979 10.1387L10.9956 24.7189C10.0293 25.7264 8.59765 26.0685 7.30571 25.5992L5.0579 24.7825C2.58367 23.8864 0 25.8006 0 28.5315V26.482C0 24.2177 0.862015 22.0489 2.3979 20.4475L20.7805 1.27766C20.8185 1.24046 20.8568 1.20077 20.8975 1.16356C20.9152 1.14755 20.9332 1.13177 20.9509 1.11576C22.1206 0.121575 23.926 0.619908 24.4398 2.14986L25.8232 6.29391C26.2733 7.63851 25.9452 9.13125 24.979 10.1387Z" fill="url(#paint3_linear_766_1409)"/>
<path d="M73.8857 31.3709H20.3225C19.1832 31.3709 18.2598 30.4081 18.2598 29.2202V26.0047C18.2598 24.8168 19.1832 23.854 20.3225 23.854H73.8857C75.0249 23.854 75.9484 24.8168 75.9484 26.0047V29.2202C75.9481 30.4081 75.0247 31.3709 73.8857 31.3709Z" fill="#E3CEEF"/>
<path d="M59.9844 48.5653H20.3225C19.1832 48.5653 18.2598 47.6024 18.2598 46.4145V43.1991C18.2598 42.0112 19.1832 41.0483 20.3225 41.0483H59.9844C61.1235 41.0483 62.0471 42.0112 62.0471 43.1991V46.4145C62.0471 47.6024 61.1235 48.5653 59.9844 48.5653Z" fill="#E3CEEF"/>
<path d="M73.8857 65.7601H20.3225C19.1832 65.7601 18.2598 64.7972 18.2598 63.6094V60.3939C18.2598 59.206 19.1832 58.2432 20.3225 58.2432H73.8857C75.0249 58.2432 75.9484 59.206 75.9484 60.3939V63.6094C75.9481 64.7972 75.0247 65.7601 73.8857 65.7601Z" fill="#E3CEEF"/>
<path d="M62.1883 83.1654H20.3225C19.1832 83.1654 18.2598 82.2025 18.2598 81.0146V77.7992C18.2598 76.6113 19.1832 75.6484 20.3225 75.6484H62.1883C63.3274 75.6484 64.251 76.6113 64.251 77.7992V81.0146C64.2508 82.2025 63.3274 83.1654 62.1883 83.1654Z" fill="#E3CEEF"/>
<path d="M25.2784 99.9827C24.9733 99.9822 24.6697 99.9392 24.3764 99.8548C23.831 99.7036 23.3354 99.4105 22.9403 99.0054C22.5451 98.6003 22.2644 98.0976 22.1269 97.5486L21.9002 96.6805L19.0498 99.4839C18.9004 99.6429 18.7205 99.7701 18.5207 99.8578C18.3209 99.9456 18.1055 99.992 17.8873 99.9944C17.6691 99.9968 17.4527 99.9551 17.2511 99.8718C17.0494 99.7885 16.8667 99.6653 16.7139 99.5096C16.561 99.3539 16.4412 99.1689 16.3616 98.9658C16.282 98.7626 16.2443 98.5455 16.2507 98.3274C16.2571 98.1093 16.3075 97.8948 16.3989 97.6967C16.4903 97.4985 16.6208 97.3209 16.7825 97.1745L19.6167 94.3889C20.0303 93.9898 20.5414 93.7061 21.0989 93.566C21.6564 93.4259 22.2409 93.4343 22.7941 93.5905C23.3365 93.7373 23.8302 94.0252 24.2251 94.4249C24.6199 94.8246 24.9018 95.3218 25.042 95.8659L25.2703 96.7388L26.9854 95.0902C27.6013 94.517 28.4114 94.1984 29.2527 94.1984C30.094 94.1984 30.9041 94.517 31.52 95.0902L32.2148 95.7833C32.5157 96.0809 32.8726 96.3159 33.2647 96.4749C33.6569 96.6339 34.0767 96.7137 34.4999 96.7097H43.3424C43.7719 96.7097 44.1838 96.8803 44.4876 97.184C44.7913 97.4877 44.9619 97.8997 44.9619 98.3292C44.9619 98.7587 44.7913 99.1706 44.4876 99.4744C44.1838 99.7781 43.7719 99.9487 43.3424 99.9487H34.4999C33.6497 99.9534 32.807 99.7892 32.0208 99.4656C31.2346 99.142 30.5205 98.6654 29.9199 98.0636L29.2527 97.4012L27.5053 99.0758C26.9084 99.655 26.1102 99.9802 25.2784 99.9827Z" fill="#9A60CD"/>
<g filter="url(#filter0_i_766_1409)">
<path d="M71.3602 82.1343V87.571C71.3824 88.6025 71.025 89.6062 70.356 90.3917C69.687 91.1772 68.7528 91.6896 67.7309 91.8319C67.1667 91.8906 66.5964 91.8302 66.0571 91.6544C65.5177 91.4787 65.0213 91.1916 64.6 90.8117C64.1788 90.4318 63.842 89.9676 63.6116 89.4492C63.3812 88.9308 63.2624 88.3698 63.2627 87.8025V82.1343H71.3602Z" fill="#F5B38E"/>
</g>
<g filter="url(#filter1_i_766_1409)">
<path d="M63.2626 77.2759V85.9516C63.2847 86.9831 62.9274 87.9869 62.2583 88.7723C61.5893 89.5578 60.6552 90.0703 59.6333 90.2125C59.069 90.2713 58.4988 90.2108 57.9594 90.0351C57.4201 89.8593 56.9237 89.5722 56.5024 89.1923C56.0811 88.8124 55.7444 88.3482 55.514 87.8298C55.2836 87.3114 55.1647 86.7504 55.165 86.1832V77.2759H63.2626Z" fill="#F5B38E"/>
</g>
<g filter="url(#filter2_i_766_1409)">
<path d="M47.4241 80.6769L44.0394 77.9562C43.1968 77.285 42.6012 76.3529 42.3462 75.3063C42.0911 74.2597 42.1911 73.1581 42.6304 72.1745L45.3998 65.9394C46.0695 64.4385 47.1083 63.1315 48.4195 62.1403C49.7306 61.1492 51.2713 60.5062 52.8981 60.2712L57.9347 59.5586L71.4576 62.1012C77.9127 63.7125 83.9518 66.6768 89.175 70.798H90.7945V86.993H89.175C89.175 86.993 85.936 88.6125 77.8384 88.6125C75.8175 88.7141 73.7983 88.3812 71.917 87.6361C70.0357 86.891 68.336 85.7511 66.9327 84.2933C66.6095 83.923 66.2064 83.6312 65.7537 83.4398L51.0324 77.2274C50.6082 77.0505 50.2192 76.7987 49.8842 76.484L47.4241 80.6769Z" fill="#FFC4A3"/>
</g>
<g filter="url(#filter3_i_766_1409)">
<path d="M74.4125 37.8889L80.003 41.1668C80.7443 41.6015 81.2826 42.3129 81.4995 43.1444C81.7164 43.976 81.594 44.8597 81.1593 45.601L68.0478 67.9631C67.8305 68.3338 67.4748 68.603 67.059 68.7114C66.6432 68.8198 66.2014 68.7586 65.8307 68.5413L57.4449 63.6245C57.0742 63.4072 56.8051 63.0515 56.6966 62.6357C56.5882 62.2199 56.6494 61.7781 56.8667 61.4074L69.9782 39.0453C70.4129 38.3039 71.1243 37.7656 71.9559 37.5488C72.7874 37.3319 73.6711 37.4543 74.4125 37.8889Z" fill="#E69B45"/>
</g>
<g filter="url(#filter4_i_766_1409)">
<path d="M53.6416 70.0865L57.4474 63.5923L65.8203 68.4994L63.2615 72.8559L53.6416 70.0865Z" fill="#FBB35A"/>
</g>
<g filter="url(#filter5_i_766_1409)">
<path d="M51.8447 92.2231C51.6985 92.3854 51.5357 92.532 51.3589 92.6604L43.9739 98.1181C43.8055 98.2412 43.6049 98.3126 43.3966 98.3235C43.1883 98.3344 42.9813 98.2844 42.801 98.1797C42.6206 98.0749 42.4747 97.9198 42.381 97.7335C42.2873 97.5471 42.2499 97.3375 42.2734 97.1302L43.4233 88.0124C43.4524 87.8015 43.5067 87.5949 43.5852 87.397L51.8447 92.2231Z" fill="#E69B45"/>
</g>
<g filter="url(#filter6_i_766_1409)">
<path d="M58.7921 80.4983L52.2331 91.6891C52.1222 91.8801 51.992 92.0592 51.8444 92.2235L43.585 87.3974V87.3812C43.6446 87.1709 43.7317 86.9694 43.8441 86.782L49.8848 76.4819L58.7921 80.4983Z" fill="#FBB35A"/>
</g>
<path d="M92.4128 67.5586H102.13C102.559 67.5586 102.971 67.7292 103.275 68.0329C103.579 68.3367 103.749 68.7486 103.749 69.1781V88.6122C103.749 89.0417 103.579 89.4536 103.275 89.7573C102.971 90.061 102.559 90.2317 102.13 90.2317H92.4128C91.5538 90.2317 90.7299 89.8904 90.1225 89.283C89.5151 88.6756 89.1738 87.8517 89.1738 86.9927V70.7976C89.1738 69.9386 89.5151 69.1147 90.1225 68.5073C90.7299 67.8998 91.5538 67.5586 92.4128 67.5586Z" fill="url(#paint4_linear_766_1409)"/>
<g filter="url(#filter7_i_766_1409)">
<path d="M78.6889 49.7652L82.8381 52.1944L73.2069 68.3522C72.987 68.7212 72.9226 69.1624 73.028 69.5788C73.1334 69.9952 73.3999 70.3527 73.7689 70.5726C74.1378 70.7925 74.579 70.8568 74.9954 70.7514C75.4118 70.6461 75.7693 70.3796 75.9892 70.0106L88.9452 48.2817C89.0541 48.099 89.126 47.8967 89.1567 47.6862C89.1874 47.4758 89.1763 47.2613 89.1241 47.0552C89.0719 46.849 88.9796 46.6551 88.8525 46.4846C88.7254 46.3141 88.566 46.1703 88.3833 46.0614C88.2006 45.9525 87.9982 45.8806 87.7878 45.85C87.5773 45.8193 87.3629 45.8303 87.1567 45.8825C86.9505 45.9347 86.7567 46.027 86.5861 46.1541C86.4156 46.2812 86.2718 46.4407 86.1629 46.6233L84.4981 49.4202L80.3279 46.9748L78.6889 49.7652Z" fill="#D4893B"/>
</g>
<defs>
<filter id="filter0_i_766_1409" x="61.2627" y="80.1343" width="10.0986" height="11.7192" filterUnits="userSpaceOnUse" color-interpolation-filters="sRGB">
<feFlood flood-opacity="0" result="BackgroundImageFix"/>
<feBlend mode="normal" in="SourceGraphic" in2="BackgroundImageFix" result="shape"/>
<feColorMatrix in="SourceAlpha" type="matrix" values="0 0 0 0 0 0 0 0 0 0 0 0 0 0 0 0 0 0 127 0" result="hardAlpha"/>
<feOffset dx="-2" dy="-2"/>
<feGaussianBlur stdDeviation="2"/>
<feComposite in2="hardAlpha" operator="arithmetic" k2="-1" k3="1"/>
<feColorMatrix type="matrix" values="0 0 0 0 0.916667 0 0 0 0 0.59838 0 0 0 0 0.420139 0 0 0 1 0"/>
<feBlend mode="normal" in2="shape" result="effect1_innerShadow_766_1409"/>
</filter>
<filter id="filter1_i_766_1409" x="53.165" y="75.2759" width="10.0986" height="14.9585" filterUnits="userSpaceOnUse" color-interpolation-filters="sRGB">
<feFlood flood-opacity="0" result="BackgroundImageFix"/>
<feBlend mode="normal" in="SourceGraphic" in2="BackgroundImageFix" result="shape"/>
<feColorMatrix in="SourceAlpha" type="matrix" values="0 0 0 0 0 0 0 0 0 0 0 0 0 0 0 0 0 0 127 0" result="hardAlpha"/>
<feOffset dx="-2" dy="-2"/>
<feGaussianBlur stdDeviation="2"/>
<feComposite in2="hardAlpha" operator="arithmetic" k2="-1" k3="1"/>
<feColorMatrix type="matrix" values="0 0 0 0 0.916667 0 0 0 0 0.59838 0 0 0 0 0.420139 0 0 0 1 0"/>
<feBlend mode="normal" in2="shape" result="effect1_innerShadow_766_1409"/>
</filter>
<filter id="filter2_i_766_1409" x="40.208" y="58.5586" width="50.5869" height="30.0718" filterUnits="userSpaceOnUse" color-interpolation-filters="sRGB">
<feFlood flood-opacity="0" result="BackgroundImageFix"/>
<feBlend mode="normal" in="SourceGraphic" in2="BackgroundImageFix" result="shape"/>
<feColorMatrix in="SourceAlpha" type="matrix" values="0 0 0 0 0 0 0 0 0 0 0 0 0 0 0 0 0 0 127 0" result="hardAlpha"/>
<feOffset dx="-2" dy="-1"/>
<feGaussianBlur stdDeviation="2"/>
<feComposite in2="hardAlpha" operator="arithmetic" k2="-1" k3="1"/>
<feColorMatrix type="matrix" values="0 0 0 0 0.976471 0 0 0 0 0.640157 0 0 0 0 0.45098 0 0 0 1 0"/>
<feBlend mode="normal" in2="shape" result="effect1_innerShadow_766_1409"/>
</filter>
<filter id="filter3_i_766_1409" x="56.6445" y="37.4438" width="24.96" height="32.3198" filterUnits="userSpaceOnUse" color-interpolation-filters="sRGB">
<feFlood flood-opacity="0" result="BackgroundImageFix"/>
<feBlend mode="normal" in="SourceGraphic" in2="BackgroundImageFix" result="shape"/>
<feColorMatrix in="SourceAlpha" type="matrix" values="0 0 0 0 0 0 0 0 0 0 0 0 0 0 0 0 0 0 127 0" result="hardAlpha"/>
<feOffset dy="1"/>
<feGaussianBlur stdDeviation="3"/>
<feComposite in2="hardAlpha" operator="arithmetic" k2="-1" k3="1"/>
<feColorMatrix type="matrix" values="0 0 0 0 0 0 0 0 0 0 0 0 0 0 0 0 0 0 0.25 0"/>
<feBlend mode="normal" in2="shape" result="effect1_innerShadow_766_1409"/>
</filter>
<filter id="filter4_i_766_1409" x="52.6416" y="63.5923" width="13.1787" height="11.2637" filterUnits="userSpaceOnUse" color-interpolation-filters="sRGB">
<feFlood flood-opacity="0" result="BackgroundImageFix"/>
<feBlend mode="normal" in="SourceGraphic" in2="BackgroundImageFix" result="shape"/>
<feColorMatrix in="SourceAlpha" type="matrix" values="0 0 0 0 0 0 0 0 0 0 0 0 0 0 0 0 0 0 127 0" result="hardAlpha"/>
<feOffset dx="-1" dy="2"/>
<feGaussianBlur stdDeviation="2"/>
<feComposite in2="hardAlpha" operator="arithmetic" k2="-1" k3="1"/>
<feColorMatrix type="matrix" values="0 0 0 0 0.5375 0 0 0 0 0.387 0 0 0 0 0 0 0 0 0.37 0"/>
<feBlend mode="normal" in2="shape" result="effect1_innerShadow_766_1409"/>
</filter>
<filter id="filter5_i_766_1409" x="42.2666" y="85.397" width="11.5781" height="12.9282" filterUnits="userSpaceOnUse" color-interpolation-filters="sRGB">
<feFlood flood-opacity="0" result="BackgroundImageFix"/>
<feBlend mode="normal" in="SourceGraphic" in2="BackgroundImageFix" result="shape"/>
<feColorMatrix in="SourceAlpha" type="matrix" values="0 0 0 0 0 0 0 0 0 0 0 0 0 0 0 0 0 0 127 0" result="hardAlpha"/>
<feOffset dx="2" dy="-2"/>
<feGaussianBlur stdDeviation="1.5"/>
<feComposite in2="hardAlpha" operator="arithmetic" k2="-1" k3="1"/>
<feColorMatrix type="matrix" values="0 0 0 0 0 0 0 0 0 0 0 0 0 0 0 0 0 0 0.25 0"/>
<feBlend mode="normal" in2="shape" result="effect1_innerShadow_766_1409"/>
</filter>
<filter id="filter6_i_766_1409" x="42.585" y="76.4819" width="16.207" height="17.7417" filterUnits="userSpaceOnUse" color-interpolation-filters="sRGB">
<feFlood flood-opacity="0" result="BackgroundImageFix"/>
<feBlend mode="normal" in="SourceGraphic" in2="BackgroundImageFix" result="shape"/>
<feColorMatrix in="SourceAlpha" type="matrix" values="0 0 0 0 0 0 0 0 0 0 0 0 0 0 0 0 0 0 127 0" result="hardAlpha"/>
<feOffset dx="-1" dy="2"/>
<feGaussianBlur stdDeviation="2"/>
<feComposite in2="hardAlpha" operator="arithmetic" k2="-1" k3="1"/>
<feColorMatrix type="matrix" values="0 0 0 0 0.5375 0 0 0 0 0.387 0 0 0 0 0 0 0 0 0.37 0"/>
<feBlend mode="normal" in2="shape" result="effect1_innerShadow_766_1409"/>
</filter>
<filter id="filter7_i_766_1409" x="71.9785" y="45.833" width="17.1953" height="24.9678" filterUnits="userSpaceOnUse" color-interpolation-filters="sRGB">
<feFlood flood-opacity="0" result="BackgroundImageFix"/>
<feBlend mode="normal" in="SourceGraphic" in2="BackgroundImageFix" result="shape"/>
<feColorMatrix in="SourceAlpha" type="matrix" values="0 0 0 0 0 0 0 0 0 0 0 0 0 0 0 0 0 0 127 0" result="hardAlpha"/>
<feOffset dx="-1"/>
<feGaussianBlur stdDeviation="0.5"/>
<feComposite in2="hardAlpha" operator="arithmetic" k2="-1" k3="1"/>
<feColorMatrix type="matrix" values="0 0 0 0 0 0 0 0 0 0 0 0 0 0 0 0 0 0 0.25 0"/>
<feBlend mode="normal" in2="shape" result="effect1_innerShadow_766_1409"/>
</filter>
<linearGradient id="paint0_linear_766_1409" x1="0" y1="52.2302" x2="73.9931" y2="52.2302" gradientUnits="userSpaceOnUse">
<stop stop-color="#9B62CD"/>
<stop offset="0.3003" stop-color="#985DCB"/>
<stop offset="0.6716" stop-color="#8F4EC7"/>
<stop offset="1" stop-color="#833AC1"/>
</linearGradient>
<linearGradient id="paint1_linear_766_1409" x1="22.4005" y1="27.8866" x2="-3.81446" y2="14.8193" gradientUnits="userSpaceOnUse">
<stop stop-color="#662D90" stop-opacity="0"/>
<stop offset="0.3052" stop-color="#632D8C" stop-opacity="0.305"/>
<stop offset="0.5953" stop-color="#5B2D81" stop-opacity="0.595"/>
<stop offset="0.8785" stop-color="#4D2D6E" stop-opacity="0.879"/>
<stop offset="1" stop-color="#452D63"/>
</linearGradient>
<linearGradient id="paint2_linear_766_1409" x1="10.1082" y1="62.1068" x2="84.1026" y2="62.1068" gradientUnits="userSpaceOnUse">
<stop stop-color="#F8F6FB"/>
<stop offset="1" stop-color="#EFDCFB"/>
</linearGradient>
<linearGradient id="paint3_linear_766_1409" x1="10.6751" y1="13.5664" x2="15.7092" y2="18.3943" gradientUnits="userSpaceOnUse">
<stop stop-color="#FF819C"/>
<stop offset="0.2594" stop-color="#FF7E9A"/>
<stop offset="0.4757" stop-color="#FE7396"/>
<stop offset="0.6765" stop-color="#FC628E"/>
<stop offset="0.8668" stop-color="#FA4A83"/>
<stop offset="1" stop-color="#F83479"/>
</linearGradient>
<linearGradient id="paint4_linear_766_1409" x1="85.6246" y1="61.875" x2="105" y2="93.125" gradientUnits="userSpaceOnUse">
<stop stop-color="#33CCCC"/>
<stop offset="1" stop-color="white"/>
</linearGradient>
</defs>
</svg>
