<svg width="115" height="115" viewBox="0 0 115 115" fill="none" xmlns="http://www.w3.org/2000/svg">
<g filter="url(#filter0_i_766_1480)">
<path d="M111.422 57.5L115 50.57L109.867 44.683L111.667 37.1046L105.257 32.6181L105.168 24.8326L97.8625 22.0002L95.9061 14.4603L88.1318 13.4362L84.4209 6.57656L76.6256 7.43014L71.3625 1.65808L64.0036 4.35067L57.5 0L50.9964 4.35067L43.6373 1.65808L38.3739 7.43014L30.5789 6.57681L26.868 13.4364L19.0934 14.4605L17.1373 22.0007L9.83181 24.8331L9.74294 32.6186L3.33319 37.1049L5.13259 44.6832L0 50.57L3.57784 57.5L0.000249979 64.43L5.13259 70.317L3.33319 77.8954L9.74319 82.3819L9.83206 90.1674L17.1375 92.9998L19.0939 100.54L26.8682 101.564L30.5791 108.423L38.3744 107.57L43.6375 113.342L50.9964 110.649L57.5 115L64.0036 110.649L71.3627 113.342L76.6261 107.57L84.4211 108.423L88.132 101.564L95.9066 100.539L97.8627 92.9993L105.168 90.1669L105.257 82.3814L111.667 77.8952L109.867 70.3168L115 64.43L111.422 57.5Z" fill="#0BBBEF"/>
</g>
<g filter="url(#filter1_dii_766_1480)">
<path d="M57.5001 103.103C82.8686 103.103 103.434 82.686 103.434 57.4999C103.434 32.3138 82.8686 11.8965 57.5001 11.8965C32.1316 11.8965 11.5664 32.3138 11.5664 57.4999C11.5664 82.686 32.1316 103.103 57.5001 103.103Z" fill="#FFE99C"/>
</g>
<g filter="url(#filter2_i_766_1480)">
<path d="M57.4338 97.1551C56.0405 97.1527 54.6483 97.0791 53.2626 96.9345L53.682 92.9908C54.9305 93.121 56.1849 93.1872 57.4403 93.1891L57.4338 97.1551ZM61.6053 96.9484L61.1996 93.0032C62.4478 92.8764 63.6884 92.6852 64.9165 92.4302L65.7351 96.3114C64.3706 96.5947 62.9921 96.8075 61.6053 96.9484ZM49.1348 96.2839C47.7707 95.9948 46.4228 95.6349 45.0966 95.2058L46.3361 91.4358C47.5286 91.822 48.7408 92.1457 49.9676 92.4056L49.1348 96.2839ZM69.778 95.2459L68.5518 91.472C69.7457 91.0893 70.9184 90.6445 72.0652 90.1393L73.6854 93.7641C72.41 94.326 71.1058 94.8202 69.778 95.2459ZM41.1955 93.71C39.9233 93.1441 38.6817 92.5126 37.4759 91.818L39.4812 88.3883C40.5662 89.0134 41.6833 89.5817 42.8281 90.0908L41.1955 93.71ZM77.413 91.8819L75.4186 88.4458C76.5061 87.8233 77.5602 87.1449 78.5765 86.4135L80.9207 89.6238C79.7917 90.4368 78.6209 91.1899 77.413 91.8819ZM33.9757 89.5502C32.8498 88.7342 31.7674 87.8607 30.7329 86.9332L33.4107 83.9906C34.3422 84.8264 35.3168 85.6136 36.3305 86.3491L33.9757 89.5502ZM84.172 87.0182L81.5038 84.0689C82.4379 83.2363 83.3278 82.3561 84.17 81.4318L87.1322 84.0904C86.1971 85.1165 85.2091 86.0938 84.172 87.0182ZM27.7824 83.9968C26.8505 82.9673 25.9734 81.8904 25.1544 80.7703L28.387 78.4406C29.1245 79.449 29.9143 80.4187 30.7531 81.3458L27.7824 83.9968ZM89.7709 80.8717L86.5455 78.532C87.2857 77.526 87.9727 76.4824 88.6036 75.4055L92.0566 77.3984C91.3559 78.5947 90.5929 79.754 89.7709 80.8717ZM22.8789 77.2878C22.1821 76.0883 21.5488 74.8534 20.9817 73.5883L24.6317 71.9773C25.1417 73.1158 25.7113 74.2271 26.3382 75.3066L22.8789 77.2878ZM93.9641 73.7065L90.3194 72.0843C90.8324 70.9483 91.2851 69.7864 91.6756 68.6034L95.4719 69.8359C95.038 71.1517 94.5347 72.4432 93.9641 73.7065ZM19.4876 69.7107C19.0588 68.3927 18.7 67.0532 18.4126 65.6979L22.3215 64.8817C22.5798 66.1008 22.9025 67.3055 23.2883 68.4908L19.4876 69.7107ZM96.5598 65.8275L92.6537 64.9982C92.9156 63.7802 93.1132 62.5495 93.2456 61.311L97.2177 61.7291C97.0705 63.1057 96.8509 64.4737 96.5598 65.8275ZM17.7686 61.598C17.628 60.2364 17.5576 58.8686 17.5576 57.4999V57.4583H21.5519V57.4999C21.5518 58.7333 21.6152 59.9658 21.7418 61.1928L17.7686 61.598ZM97.4423 57.5832H93.4481V57.4999C93.448 56.2534 93.3833 55.0078 93.2544 53.7679L97.2271 53.3584C97.3704 54.7343 97.4423 56.1167 97.4423 57.4999V57.5832ZM21.7501 53.729L17.7778 53.315C17.9236 51.9384 18.1418 50.5702 18.4314 49.2162L22.3382 50.0405C22.0775 51.259 21.8812 52.4901 21.7501 53.729ZM92.6705 50.0794C92.4111 48.8605 92.0874 47.656 91.7006 46.4708L95.4999 45.247C95.9301 46.5644 96.2904 47.9034 96.5793 49.2583L92.6705 50.0794ZM23.3126 46.4349L19.5148 45.2068C19.9471 43.8903 20.4487 42.5973 21.0174 41.333L24.6641 42.9512C24.1526 44.0881 23.7014 45.251 23.3126 46.4349ZM90.3526 42.9856C89.8413 41.8478 89.2704 40.7373 88.6423 39.6588L92.1 37.6723C92.7983 38.8712 93.4327 40.1056 94.0008 41.3704L90.3526 42.9856ZM26.3766 39.6276L22.9211 37.6384C23.6207 36.4414 24.3825 35.2813 25.2033 34.1628L28.4312 36.499C27.692 37.5057 27.0063 38.55 26.3766 39.6276ZM86.5897 36.5273C85.8509 35.5195 85.0599 34.5505 84.2199 33.624L87.1884 30.9721C88.1208 32.0003 88.999 33.0758 89.8196 34.1941L86.5897 36.5273ZM30.8033 33.5987L27.8378 30.9423C28.7718 29.9152 29.7588 28.9367 30.7948 28.0108L33.4659 30.9587C32.5331 31.7926 31.6444 32.6737 30.8033 33.5987ZM81.5595 30.9805C80.6277 30.1464 79.6527 29.361 78.6387 28.6275L80.9893 25.4213C82.116 26.2363 83.1992 27.1088 84.2346 28.0354L81.5595 30.9805ZM36.3914 28.6069L34.0433 25.3988C35.1717 24.5852 36.3419 23.8304 37.5493 23.1375L39.5464 26.5716C38.4597 27.1954 37.4067 27.8741 36.3914 28.6069ZM75.485 26.5899C74.3992 25.9662 73.2814 25.3992 72.1361 24.8912L73.7645 21.2702C75.0373 21.8347 76.2795 22.4647 77.4861 23.1578L75.485 26.5899ZM42.8985 24.8766L41.2734 21.2538C42.548 20.6905 43.8516 20.1941 45.1788 19.7668L46.4095 23.539C45.2164 23.9236 44.0445 24.3701 42.8985 24.8766ZM68.6262 23.5521C67.4331 23.1672 66.2205 22.8445 64.9934 22.5855L65.8227 18.7065C67.1869 18.9943 68.5349 19.3528 69.8614 19.7804L68.6262 23.5521ZM50.0452 22.5781L49.2214 18.6976C50.5858 18.4127 51.9642 18.1986 53.351 18.0561L53.7609 22.0008C52.513 22.1287 51.2727 22.3211 50.0452 22.5781ZM61.279 22.0048C60.0303 21.8759 58.7757 21.811 57.5202 21.8102L57.5222 17.8447C58.9154 17.8455 60.3077 17.9176 61.6934 18.0606L61.279 22.0048Z" fill="#0BBBEF"/>
</g>
<g filter="url(#filter3_i_766_1480)">
<path d="M57.4997 87.2416C74.0444 87.2416 87.4565 73.9259 87.4565 57.5002C87.4565 41.0745 74.0444 27.7588 57.4997 27.7588C40.9551 27.7588 27.543 41.0745 27.543 57.5002C27.543 73.9259 40.9551 87.2416 57.4997 87.2416Z" fill="#EC607E"/>
</g>
<g filter="url(#filter4_di_766_1480)">
<path d="M49.5119 75.345C48.9873 75.3457 48.4677 75.2434 47.983 75.0441C47.4984 74.8447 47.0582 74.5522 46.6877 74.1834L38.6993 66.2524C38.3229 65.8853 38.0235 65.4479 37.8183 64.9654C37.6132 64.4829 37.5063 63.9648 37.5039 63.441C37.5016 62.9172 37.6038 62.3982 37.8046 61.9139C38.0054 61.4295 38.3008 60.9895 38.6739 60.6191C39.0469 60.2488 39.4901 59.9555 39.978 59.7561C40.4659 59.5568 40.9887 59.4554 41.5162 59.4578C42.0438 59.4601 42.5656 59.5662 43.0516 59.7699C43.5377 59.9737 43.9782 60.2709 44.3479 60.6446L49.5119 65.7713L68.656 46.7653C69.4074 46.0327 70.4197 45.6243 71.4728 45.6289C72.5259 45.6336 73.5345 46.051 74.2792 46.7903C75.0239 47.5296 75.4443 48.531 75.4491 49.5765C75.4539 50.622 75.0425 51.6271 74.3046 52.373L52.3363 74.1834C51.9659 74.5522 51.5256 74.8448 51.0409 75.0441C50.5562 75.2435 50.0366 75.3457 49.5119 75.345Z" fill="white"/>
</g>
<defs>
<filter id="filter0_i_766_1480" x="0" y="-2" width="115" height="117" filterUnits="userSpaceOnUse" color-interpolation-filters="sRGB">
<feFlood flood-opacity="0" result="BackgroundImageFix"/>
<feBlend mode="normal" in="SourceGraphic" in2="BackgroundImageFix" result="shape"/>
<feColorMatrix in="SourceAlpha" type="matrix" values="0 0 0 0 0 0 0 0 0 0 0 0 0 0 0 0 0 0 127 0" result="hardAlpha"/>
<feOffset dy="-3"/>
<feGaussianBlur stdDeviation="1"/>
<feComposite in2="hardAlpha" operator="arithmetic" k2="-1" k3="1"/>
<feColorMatrix type="matrix" values="0 0 0 0 0 0 0 0 0 0 0 0 0 0 0 0 0 0 0.25 0"/>
<feBlend mode="normal" in2="shape" result="effect1_innerShadow_766_1480"/>
</filter>
<filter id="filter1_dii_766_1480" x="10.5664" y="8.89648" width="93.8672" height="97.207" filterUnits="userSpaceOnUse" color-interpolation-filters="sRGB">
<feFlood flood-opacity="0" result="BackgroundImageFix"/>
<feColorMatrix in="SourceAlpha" type="matrix" values="0 0 0 0 0 0 0 0 0 0 0 0 0 0 0 0 0 0 127 0" result="hardAlpha"/>
<feOffset dy="2"/>
<feGaussianBlur stdDeviation="0.5"/>
<feComposite in2="hardAlpha" operator="out"/>
<feColorMatrix type="matrix" values="0 0 0 0 0 0 0 0 0 0 0 0 0 0 0 0 0 0 0.25 0"/>
<feBlend mode="normal" in2="BackgroundImageFix" result="effect1_dropShadow_766_1480"/>
<feBlend mode="normal" in="SourceGraphic" in2="effect1_dropShadow_766_1480" result="shape"/>
<feColorMatrix in="SourceAlpha" type="matrix" values="0 0 0 0 0 0 0 0 0 0 0 0 0 0 0 0 0 0 127 0" result="hardAlpha"/>
<feOffset dy="-3"/>
<feGaussianBlur stdDeviation="2"/>
<feComposite in2="hardAlpha" operator="arithmetic" k2="-1" k3="1"/>
<feColorMatrix type="matrix" values="0 0 0 0 0 0 0 0 0 0 0 0 0 0 0 0 0 0 0.25 0"/>
<feBlend mode="normal" in2="shape" result="effect2_innerShadow_766_1480"/>
<feColorMatrix in="SourceAlpha" type="matrix" values="0 0 0 0 0 0 0 0 0 0 0 0 0 0 0 0 0 0 127 0" result="hardAlpha"/>
<feOffset dy="-1"/>
<feGaussianBlur stdDeviation="0.5"/>
<feComposite in2="hardAlpha" operator="arithmetic" k2="-1" k3="1"/>
<feColorMatrix type="matrix" values="0 0 0 0 0 0 0 0 0 0 0 0 0 0 0 0 0 0 0.25 0"/>
<feBlend mode="normal" in2="effect2_innerShadow_766_1480" result="effect3_innerShadow_766_1480"/>
</filter>
<filter id="filter2_i_766_1480" x="17.5576" y="17.8447" width="79.8848" height="80.3105" filterUnits="userSpaceOnUse" color-interpolation-filters="sRGB">
<feFlood flood-opacity="0" result="BackgroundImageFix"/>
<feBlend mode="normal" in="SourceGraphic" in2="BackgroundImageFix" result="shape"/>
<feColorMatrix in="SourceAlpha" type="matrix" values="0 0 0 0 0 0 0 0 0 0 0 0 0 0 0 0 0 0 127 0" result="hardAlpha"/>
<feOffset dy="2"/>
<feGaussianBlur stdDeviation="0.5"/>
<feComposite in2="hardAlpha" operator="arithmetic" k2="-1" k3="1"/>
<feColorMatrix type="matrix" values="0 0 0 0 0 0 0 0 0 0 0 0 0 0 0 0 0 0 0.25 0"/>
<feBlend mode="normal" in2="shape" result="effect1_innerShadow_766_1480"/>
</filter>
<filter id="filter3_i_766_1480" x="27.543" y="27.7588" width="59.9131" height="59.4829" filterUnits="userSpaceOnUse" color-interpolation-filters="sRGB">
<feFlood flood-opacity="0" result="BackgroundImageFix"/>
<feBlend mode="normal" in="SourceGraphic" in2="BackgroundImageFix" result="shape"/>
<feColorMatrix in="SourceAlpha" type="matrix" values="0 0 0 0 0 0 0 0 0 0 0 0 0 0 0 0 0 0 127 0" result="hardAlpha"/>
<feOffset/>
<feGaussianBlur stdDeviation="5"/>
<feComposite in2="hardAlpha" operator="arithmetic" k2="-1" k3="1"/>
<feColorMatrix type="matrix" values="0 0 0 0 0.0727604 0 0 0 0 0.425074 0 0 0 0 0.529167 0 0 0 0.82 0"/>
<feBlend mode="normal" in2="shape" result="effect1_innerShadow_766_1480"/>
</filter>
<filter id="filter4_di_766_1480" x="36.5039" y="44.6289" width="39.9453" height="33.7163" filterUnits="userSpaceOnUse" color-interpolation-filters="sRGB">
<feFlood flood-opacity="0" result="BackgroundImageFix"/>
<feColorMatrix in="SourceAlpha" type="matrix" values="0 0 0 0 0 0 0 0 0 0 0 0 0 0 0 0 0 0 127 0" result="hardAlpha"/>
<feOffset dy="2"/>
<feGaussianBlur stdDeviation="0.5"/>
<feComposite in2="hardAlpha" operator="out"/>
<feColorMatrix type="matrix" values="0 0 0 0 0 0 0 0 0 0 0 0 0 0 0 0 0 0 0.25 0"/>
<feBlend mode="normal" in2="BackgroundImageFix" result="effect1_dropShadow_766_1480"/>
<feBlend mode="normal" in="SourceGraphic" in2="effect1_dropShadow_766_1480" result="shape"/>
<feColorMatrix in="SourceAlpha" type="matrix" values="0 0 0 0 0 0 0 0 0 0 0 0 0 0 0 0 0 0 127 0" result="hardAlpha"/>
<feOffset dy="-1"/>
<feGaussianBlur stdDeviation="1.5"/>
<feComposite in2="hardAlpha" operator="arithmetic" k2="-1" k3="1"/>
<feColorMatrix type="matrix" values="0 0 0 0 0 0 0 0 0 0 0 0 0 0 0 0 0 0 0.25 0"/>
<feBlend mode="normal" in2="shape" result="effect2_innerShadow_766_1480"/>
</filter>
</defs>
</svg>
