<svg width="115" height="115" viewBox="0 0 115 115" fill="none" xmlns="http://www.w3.org/2000/svg">
<path d="M32.2088 101.484L29.215 95.2105C29.0777 94.9229 28.8628 94.6804 28.5939 94.5105L28.556 94.4864C28.0373 94.158 27.3819 94.139 26.8447 94.4366C24.5354 95.7157 22.8558 96.9434 21.7377 97.8696L15.9632 86.7932C15.7415 86.368 15.3503 86.0572 14.8869 85.9385C14.4242 85.8201 13.9321 85.9049 13.5348 86.172L0.747305 94.7665C0.25878 95.0952 -0.0240035 95.6557 0.00160193 96.2456C0.0272074 96.8354 0.357158 97.3691 0.872637 97.654L10.2939 102.858V113.309C10.2939 113.916 10.618 114.477 11.1429 114.778C11.4019 114.926 11.6898 115 11.978 115C12.274 115 12.5703 114.922 12.8342 114.765L31.5464 103.671C32.2986 103.225 32.5863 102.275 32.2088 101.484Z" fill="#9D1B1C"/>
<path d="M114.252 94.7666L101.465 86.172C101.067 85.9047 100.575 85.8201 100.112 85.9386C99.6491 86.057 99.2576 86.3676 99.0361 86.7932L93.2617 97.8696C92.1436 96.9435 90.4637 95.7158 88.1545 94.4366C87.6177 94.1389 86.9623 94.158 86.4432 94.4864L86.4052 94.5106C86.1366 94.6807 85.9217 94.9231 85.7842 95.2105L82.7906 101.484C82.413 102.275 82.7008 103.225 83.4532 103.671L102.165 114.765C102.429 114.922 102.725 115 103.021 115C103.309 115 103.598 114.926 103.856 114.778C104.381 114.476 104.706 113.916 104.706 113.309V102.857L114.127 97.6538C114.642 97.3691 114.972 96.8354 114.998 96.2454C115.023 95.6555 114.741 95.095 114.252 94.7666Z" fill="#9D1B1C"/>
<path d="M32.2094 101.484L29.2156 95.2104C28.9457 94.6449 28.3781 94.2754 27.7539 94.2511C27.7539 94.2511 27.7036 94.249 27.6178 94.249C27.3323 94.249 27.0522 94.3219 26.8024 94.4606C22.1683 97.0352 20.0844 99.3954 19.9977 99.4947C19.5963 99.9555 19.4741 100.598 19.6785 101.176C19.8829 101.753 20.382 102.173 20.9833 102.276L30.4085 103.882C30.5026 103.898 30.597 103.906 30.6906 103.906C31.2135 103.906 31.714 103.661 32.0349 103.233C32.4143 102.728 32.4812 102.054 32.2094 101.484Z" fill="#5F1518"/>
<path d="M95.0039 99.4947C94.9172 99.3954 92.8333 97.0354 88.1992 94.4606C87.9496 94.3219 87.6693 94.249 87.3838 94.249C87.2987 94.249 87.2482 94.2511 87.2482 94.2511C86.624 94.275 86.0559 94.6444 85.786 95.2104L82.7924 101.484C82.5204 102.054 82.5875 102.728 82.9664 103.233C83.2879 103.661 83.7878 103.906 84.3107 103.906C84.4044 103.906 84.4987 103.898 84.5928 103.882L94.0179 102.275C94.6192 102.173 95.118 101.752 95.3226 101.175C95.5275 100.598 95.4053 99.9553 95.0039 99.4947Z" fill="#5F1518"/>
<g filter="url(#filter0_i_766_1489)">
<path d="M24.8122 74.3061C24.4093 73.4704 23.4105 73.1171 22.5747 73.515C14.3931 77.4114 10.8438 81.5231 10.6969 81.6959C10.2506 82.2213 10.1673 82.9663 10.4858 83.578L19.7727 101.392C20.0294 101.885 20.5126 102.216 21.0615 102.284C21.1298 102.292 21.1976 102.296 21.2654 102.296C21.7439 102.296 22.2059 102.09 22.5277 101.727C22.5374 101.716 23.514 100.624 25.6217 99.1616C27.5695 97.8103 30.909 95.8578 35.7577 94.229C36.3033 94.0456 36.7177 93.5956 36.8571 93.0356C36.9966 92.4753 36.8419 91.8823 36.4466 91.4627C31.8771 86.6132 27.9624 80.841 24.8122 74.3061Z" fill="#E93234"/>
<path d="M104.303 81.696C104.156 81.5227 100.606 77.4114 92.425 73.5151C91.589 73.1172 90.5909 73.4702 90.1877 74.3061C87.0369 80.8415 83.1222 86.6139 78.5527 91.4626C78.1574 91.8819 78.0026 92.4751 78.1421 93.0354C78.2818 93.5957 78.6962 94.0459 79.2416 94.2288C84.0902 95.8578 87.4297 97.8103 89.3775 99.1614C91.4855 100.624 92.4619 101.716 92.467 101.721C92.7889 102.091 93.252 102.299 93.7347 102.299C93.8008 102.299 93.867 102.295 93.9333 102.287C94.4851 102.222 94.9694 101.887 95.227 101.392L104.514 83.578C104.832 82.9665 104.749 82.2215 104.303 81.696Z" fill="#E93234"/>
<path d="M104.303 81.696C104.156 81.5227 100.606 77.4114 92.425 73.5151C91.589 73.1172 90.5909 73.4702 90.1877 74.3061C87.0369 80.8415 83.1222 86.6139 78.5527 91.4626C78.1574 91.8819 78.0026 92.4751 78.1421 93.0354C78.2818 93.5957 78.6962 94.0459 79.2416 94.2288C84.0902 95.8578 87.4297 97.8103 89.3775 99.1614C91.4855 100.624 92.4619 101.716 92.467 101.721C92.7889 102.091 93.252 102.299 93.7347 102.299C93.8008 102.299 93.867 102.295 93.9333 102.287C94.4851 102.222 94.9694 101.887 95.227 101.392L104.514 83.578C104.832 82.9665 104.749 82.2215 104.303 81.696Z" fill="#E93234"/>
</g>
<g filter="url(#filter1_i_766_1489)">
<g filter="url(#filter2_ii_766_1489)">
<path d="M102.923 18.7102C102.841 17.9133 102.214 17.2833 101.42 17.2012C88.0165 15.8127 77.0917 11.3235 70.2876 7.80251C62.8912 3.97496 58.6212 0.428003 58.5799 0.393492C57.9546 -0.131164 57.0449 -0.131164 56.4196 0.393492C56.2516 0.534694 39.312 14.5355 13.5792 17.2014C12.7856 17.2838 12.1585 17.9135 12.0768 18.7104C12.004 19.4214 10.3444 36.3512 14.9459 56.0677C17.6603 67.6975 22.007 77.8459 27.8652 86.2305C35.2246 96.764 44.9858 104.514 56.8771 109.264C57.0772 109.344 57.2881 109.384 57.4995 109.384C57.7109 109.384 57.922 109.344 58.1219 109.264C70.0132 104.514 79.7745 96.764 87.1338 86.2305C92.9923 77.8457 97.3387 67.6977 100.053 56.0677C104.655 36.3509 102.995 19.4212 102.923 18.7102Z" fill="url(#paint0_linear_766_1489)"/>
</g>
<g filter="url(#filter3_ii_766_1489)">
<path d="M92.5014 27.2404C92.4197 26.4435 91.7926 25.8135 90.999 25.7314C71.571 23.7187 58.7067 13.1248 58.5803 13.019C57.955 12.4943 57.0453 12.4943 56.42 13.019C56.2931 13.1257 43.4832 23.7131 24.0013 25.7314C23.2077 25.8137 22.5806 26.4435 22.4988 27.2404C22.4431 27.7847 21.1723 40.747 24.693 55.8317C26.7725 64.7414 30.1048 72.519 34.5967 78.9488C40.2488 87.0382 47.7454 92.9901 56.8775 96.6383C57.0777 96.7181 57.2886 96.7581 57.4999 96.7581C57.7113 96.7581 57.9224 96.7181 58.1223 96.6383C67.2549 92.9901 74.7513 87.0384 80.4031 78.9488C84.8955 72.519 88.2276 64.7414 90.3068 55.8317C93.828 40.7466 92.5572 27.7847 92.5014 27.2404Z" fill="#FFDB57"/>
</g>
</g>
<g filter="url(#filter4_di_766_1489)">
<path d="M76.5701 64.8219C76.7184 63.2559 76.6736 61.6957 76.4482 60.1724L79.9545 58.6029C79.6233 56.8972 79.1024 55.2145 78.3802 53.5861C77.658 51.9589 76.761 50.4449 75.7214 49.0555L72.2127 50.6239C71.2364 49.4378 70.1117 48.3615 68.8536 47.4237L70.229 43.8251C68.7926 42.855 67.2401 42.0351 65.583 41.3964C63.9327 40.7601 62.2376 40.3201 60.5138 40.0764L59.1372 43.6784C57.5778 43.5295 56.0242 43.5745 54.5073 43.8009L52.9537 40.297C49.483 40.9818 46.24 42.46 43.4558 44.5723L44.9991 48.0531C43.8158 49.0336 42.744 50.1642 41.8102 51.4265L38.236 50.0499C37.2608 51.4889 36.4431 53.0491 35.806 54.7121C35.1747 56.3752 34.7423 58.0821 34.4996 59.8017L38.083 61.1829C37.9347 62.7489 37.9795 64.3092 38.2049 65.8324L34.6986 67.4008C35.0298 69.1077 35.5507 70.7892 36.2729 72.4175C36.9963 74.0459 37.8921 75.5588 38.9329 76.9481L42.4392 75.3798C43.4156 76.567 44.5403 77.6434 45.7995 78.5811L44.4241 82.182C45.8605 83.1533 47.413 83.9721 49.0701 84.6107C50.7204 85.2471 52.4155 85.6871 54.1393 85.9307L55.5159 82.3287C57.0753 82.4765 58.6289 82.4315 60.1458 82.2051L61.6994 85.7079C65.1701 85.023 68.4154 83.5448 71.1984 81.4325L69.654 77.9517C70.8362 76.9712 71.9091 75.8417 72.8429 74.5783L76.4148 75.9549C77.39 74.5159 78.2077 72.9557 78.8448 71.2938C79.4807 69.6308 79.912 67.9228 80.1546 66.202L76.5701 64.8219ZM67.0446 66.7471C64.985 72.1381 58.9647 74.8289 53.5954 72.7605C48.2329 70.6933 45.55 64.6487 47.6085 59.2589C49.6681 53.8691 55.6884 51.1782 61.0543 53.2443C66.4213 55.3115 69.1031 61.3584 67.0446 66.7471Z" fill="url(#paint1_linear_766_1489)"/>
<path d="M95.9842 36.1257C95.9842 35.4281 95.9129 34.7456 95.791 34.0827L98.4785 32.5236C97.8276 30.0383 96.535 27.8129 94.7675 26.0551L92.073 27.6177C91.0449 26.7331 89.8535 26.0401 88.5506 25.5782V22.4565C87.3638 22.1297 86.1206 21.9426 84.8338 21.9426C83.5469 21.9426 82.3049 22.132 81.117 22.4565V25.5793C79.814 26.0413 78.6238 26.7354 77.5945 27.6188L74.8989 26.0563C73.1337 27.814 71.8399 30.0395 71.1879 32.5248L73.8766 34.0838C73.7547 34.7479 73.6822 35.4281 73.6822 36.1268C73.6822 36.8255 73.7547 37.5069 73.8766 38.1698L71.1879 39.7289C71.8399 42.2142 73.1337 44.4408 74.8989 46.1973L77.5934 44.6348C78.6226 45.5194 79.8129 46.2123 81.1158 46.6743V49.7971C82.3038 50.1228 83.5458 50.311 84.8326 50.311C86.1195 50.311 87.3638 50.1216 88.5494 49.7971V46.6743C89.8524 46.2123 91.0438 45.5183 92.0719 44.6348L94.7663 46.1973C96.5339 44.4396 97.8265 42.2142 98.4774 39.7289L95.7898 38.1698C95.9129 37.5046 95.9842 36.8244 95.9842 36.1257ZM84.8349 41.3526C81.9599 41.3526 79.6289 39.0129 79.6289 36.1268C79.6289 33.2408 81.9599 30.8998 84.8349 30.8998C87.7065 30.8998 90.0375 33.2396 90.0375 36.1257C90.0375 39.0117 87.7065 41.3526 84.8349 41.3526Z" fill="url(#paint2_linear_766_1489)"/>
<path d="M40.8959 36.1257C40.8959 35.4281 40.8246 34.7456 40.7027 34.0827L43.3903 32.5236C42.7394 30.0383 41.4468 27.8129 39.6792 26.0551L36.9848 27.6177C35.9567 26.7331 34.7653 26.0401 33.4623 25.5782V22.4565C32.2755 22.1297 31.0324 21.9426 29.7455 21.9426C28.4587 21.9426 27.2167 22.132 26.0287 22.4565V25.5793C24.7258 26.0413 23.5355 26.7354 22.5063 27.6188L19.8107 26.0563C18.0454 27.814 16.7517 30.0395 16.0996 32.5248L18.7883 34.0838C18.6664 34.7479 18.594 35.4281 18.594 36.1268C18.594 36.8255 18.6664 37.5069 18.7883 38.1698L16.0996 39.7289C16.7517 42.2142 18.0454 44.4408 19.8107 46.1973L22.5051 44.6348C23.5344 45.5194 24.7246 46.2123 26.0276 46.6743V49.7971C27.2155 50.1228 28.4575 50.311 29.7444 50.311C31.0312 50.311 32.2755 50.1216 33.4612 49.7971V46.6743C34.7641 46.2123 35.9555 45.5183 36.9836 44.6348L39.6781 46.1973C41.4456 44.4396 42.7382 42.2142 43.3891 39.7289L40.7016 38.1698C40.8246 37.5046 40.8959 36.8244 40.8959 36.1257ZM29.7467 41.3526C26.8717 41.3526 24.5406 39.0129 24.5406 36.1268C24.5406 33.2408 26.8717 30.8998 29.7467 30.8998C32.6182 30.8998 34.9493 33.2396 34.9493 36.1257C34.9493 39.0117 32.6182 41.3526 29.7467 41.3526Z" fill="url(#paint3_linear_766_1489)"/>
</g>
<defs>
<filter id="filter0_i_766_1489" x="10.2939" y="73.3516" width="96.4121" height="31.9478" filterUnits="userSpaceOnUse" color-interpolation-filters="sRGB">
<feFlood flood-opacity="0" result="BackgroundImageFix"/>
<feBlend mode="normal" in="SourceGraphic" in2="BackgroundImageFix" result="shape"/>
<feColorMatrix in="SourceAlpha" type="matrix" values="0 0 0 0 0 0 0 0 0 0 0 0 0 0 0 0 0 0 127 0" result="hardAlpha"/>
<feOffset dx="2" dy="3"/>
<feGaussianBlur stdDeviation="3"/>
<feComposite in2="hardAlpha" operator="arithmetic" k2="-1" k3="1"/>
<feColorMatrix type="matrix" values="0 0 0 0 0 0 0 0 0 0 0 0 0 0 0 0 0 0 0.25 0"/>
<feBlend mode="normal" in2="shape" result="effect1_innerShadow_766_1489"/>
</filter>
<filter id="filter1_i_766_1489" x="11.7266" y="0" width="91.5459" height="109.384" filterUnits="userSpaceOnUse" color-interpolation-filters="sRGB">
<feFlood flood-opacity="0" result="BackgroundImageFix"/>
<feBlend mode="normal" in="SourceGraphic" in2="BackgroundImageFix" result="shape"/>
<feColorMatrix in="SourceAlpha" type="matrix" values="0 0 0 0 0 0 0 0 0 0 0 0 0 0 0 0 0 0 127 0" result="hardAlpha"/>
<feOffset dy="2"/>
<feComposite in2="hardAlpha" operator="arithmetic" k2="-1" k3="1"/>
<feColorMatrix type="matrix" values="0 0 0 0 0 0 0 0 0 0 0 0 0 0 0 0 0 0 0.25 0"/>
<feBlend mode="normal" in2="shape" result="effect1_innerShadow_766_1489"/>
</filter>
<filter id="filter2_ii_766_1489" x="11.7266" y="-9" width="91.5459" height="118.384" filterUnits="userSpaceOnUse" color-interpolation-filters="sRGB">
<feFlood flood-opacity="0" result="BackgroundImageFix"/>
<feBlend mode="normal" in="SourceGraphic" in2="BackgroundImageFix" result="shape"/>
<feColorMatrix in="SourceAlpha" type="matrix" values="0 0 0 0 0 0 0 0 0 0 0 0 0 0 0 0 0 0 127 0" result="hardAlpha"/>
<feOffset dy="-10"/>
<feGaussianBlur stdDeviation="4.5"/>
<feComposite in2="hardAlpha" operator="arithmetic" k2="-1" k3="1"/>
<feColorMatrix type="matrix" values="0 0 0 0 0.6125 0 0 0 0 0.526437 0 0 0 0 0.219479 0 0 0 1 0"/>
<feBlend mode="normal" in2="shape" result="effect1_innerShadow_766_1489"/>
<feColorMatrix in="SourceAlpha" type="matrix" values="0 0 0 0 0 0 0 0 0 0 0 0 0 0 0 0 0 0 127 0" result="hardAlpha"/>
<feOffset dy="-5"/>
<feGaussianBlur stdDeviation="1"/>
<feComposite in2="hardAlpha" operator="arithmetic" k2="-1" k3="1"/>
<feColorMatrix type="matrix" values="0 0 0 0 0 0 0 0 0 0 0 0 0 0 0 0 0 0 0.25 0"/>
<feBlend mode="normal" in2="effect1_innerShadow_766_1489" result="effect2_innerShadow_766_1489"/>
</filter>
<filter id="filter3_ii_766_1489" x="22.2305" y="2.62549" width="70.5391" height="94.1326" filterUnits="userSpaceOnUse" color-interpolation-filters="sRGB">
<feFlood flood-opacity="0" result="BackgroundImageFix"/>
<feBlend mode="normal" in="SourceGraphic" in2="BackgroundImageFix" result="shape"/>
<feColorMatrix in="SourceAlpha" type="matrix" values="0 0 0 0 0 0 0 0 0 0 0 0 0 0 0 0 0 0 127 0" result="hardAlpha"/>
<feOffset dy="-10"/>
<feGaussianBlur stdDeviation="12.5"/>
<feComposite in2="hardAlpha" operator="arithmetic" k2="-1" k3="1"/>
<feColorMatrix type="matrix" values="0 0 0 0 0.579167 0 0 0 0 0.45175 0 0 0 0 0 0 0 0 1 0"/>
<feBlend mode="normal" in2="shape" result="effect1_innerShadow_766_1489"/>
<feColorMatrix in="SourceAlpha" type="matrix" values="0 0 0 0 0 0 0 0 0 0 0 0 0 0 0 0 0 0 127 0" result="hardAlpha"/>
<feOffset dy="-6"/>
<feGaussianBlur stdDeviation="1.5"/>
<feComposite in2="hardAlpha" operator="arithmetic" k2="-1" k3="1"/>
<feColorMatrix type="matrix" values="0 0 0 0 0 0 0 0 0 0 0 0 0 0 0 0 0 0 0.25 0"/>
<feBlend mode="normal" in2="effect1_innerShadow_766_1489" result="effect2_innerShadow_766_1489"/>
</filter>
<filter id="filter4_di_766_1489" x="12.0996" y="21.9426" width="90.3789" height="71.988" filterUnits="userSpaceOnUse" color-interpolation-filters="sRGB">
<feFlood flood-opacity="0" result="BackgroundImageFix"/>
<feColorMatrix in="SourceAlpha" type="matrix" values="0 0 0 0 0 0 0 0 0 0 0 0 0 0 0 0 0 0 127 0" result="hardAlpha"/>
<feOffset dy="4"/>
<feGaussianBlur stdDeviation="2"/>
<feComposite in2="hardAlpha" operator="out"/>
<feColorMatrix type="matrix" values="0 0 0 0 0 0 0 0 0 0 0 0 0 0 0 0 0 0 0.25 0"/>
<feBlend mode="normal" in2="BackgroundImageFix" result="effect1_dropShadow_766_1489"/>
<feBlend mode="normal" in="SourceGraphic" in2="effect1_dropShadow_766_1489" result="shape"/>
<feColorMatrix in="SourceAlpha" type="matrix" values="0 0 0 0 0 0 0 0 0 0 0 0 0 0 0 0 0 0 127 0" result="hardAlpha"/>
<feOffset dy="-1"/>
<feComposite in2="hardAlpha" operator="arithmetic" k2="-1" k3="1"/>
<feColorMatrix type="matrix" values="0 0 0 0 0 0 0 0 0 0 0 0 0 0 0 0 0 0 0.25 0"/>
<feBlend mode="normal" in2="shape" result="effect2_innerShadow_766_1489"/>
</filter>
<linearGradient id="paint0_linear_766_1489" x1="57.4997" y1="0" x2="57.4997" y2="109.384" gradientUnits="userSpaceOnUse">
<stop stop-color="#EBE0A3"/>
<stop offset="1" stop-color="#FFE143"/>
</linearGradient>
<linearGradient id="paint1_linear_766_1489" x1="57.4996" y1="15.5908" x2="57.4996" y2="63.5182" gradientUnits="userSpaceOnUse">
<stop stop-color="#FFF6C7"/>
<stop offset="1" stop-color="#FFE454"/>
</linearGradient>
<linearGradient id="paint2_linear_766_1489" x1="57.4996" y1="15.5908" x2="57.4996" y2="63.5182" gradientUnits="userSpaceOnUse">
<stop stop-color="#FFF6C7"/>
<stop offset="1" stop-color="#FFE454"/>
</linearGradient>
<linearGradient id="paint3_linear_766_1489" x1="57.4996" y1="15.5908" x2="57.4996" y2="63.5182" gradientUnits="userSpaceOnUse">
<stop stop-color="#FFF6C7"/>
<stop offset="1" stop-color="#FFE454"/>
</linearGradient>
</defs>
</svg>
