<svg width="109" height="115" viewBox="0 0 109 115" fill="none" xmlns="http://www.w3.org/2000/svg">
<g filter="url(#filter0_ii_766_1434)">
<path d="M96.5329 0H22.8464C22.2074 0 21.6895 0.517949 21.6895 1.15696V98.3829L21.9965 98.6076H37.6576C38.8114 98.6076 39.7469 99.5431 39.7469 100.697V105.531H41.7343C42.8881 105.531 43.8236 106.467 43.8236 107.621V114.775L44.0482 115H96.5329C97.1717 115 97.6896 114.482 97.6896 113.843V1.15674C97.6896 0.517949 97.1717 0 96.5329 0Z" fill="#FFF3DE"/>
</g>
<g filter="url(#filter1_i_766_1434)">
<path d="M31.4102 57.1045H42.5701V65.0173H31.4102V57.1045Z" fill="#883F2E"/>
<path d="M49.5049 57.1045H65.252V65.0173H49.5049V57.1045Z" fill="#883F2E"/>
</g>
<g filter="url(#filter2_i_766_1434)">
<path d="M108.023 61.0601C108.023 64.2648 105.425 66.8629 102.221 66.8629H66.3492C65.6208 66.8629 65.0303 66.2724 65.0303 65.544V56.5762C65.0303 55.8478 65.6208 55.2573 66.3492 55.2573H102.221C105.425 55.2573 108.023 57.8554 108.023 61.0601Z" fill="#CA6E59"/>
</g>
<g filter="url(#filter3_i_766_1434)">
<path d="M49.7321 56.4143V65.7059C49.7321 66.3449 49.2141 66.8629 48.5751 66.8629H43.5036C42.8646 66.8629 42.3467 66.3449 42.3467 65.7059V56.4143C42.3467 55.7753 42.8646 55.2573 43.5036 55.2573H48.5751C49.2141 55.2573 49.7321 55.7753 49.7321 56.4143Z" fill="#CA6E59"/>
</g>
<g filter="url(#filter4_i_766_1434)">
<path d="M29.3219 70.3309H14.7279C14.6078 70.3309 14.4905 70.3186 14.376 70.2988V77.7857C14.5069 77.7763 14.6385 77.7698 14.7717 77.7698H29.2786C29.4118 77.7698 29.5434 77.7763 29.6741 77.7857V70.2988C29.5593 70.3186 29.4421 70.3309 29.3219 70.3309Z" fill="#883F2E"/>
<path d="M14.7272 51.7897H29.3214C29.4416 51.7897 29.5588 51.8021 29.6734 51.8219V44.335C29.5424 44.3444 29.411 44.3509 29.2778 44.3509H14.7708C14.6376 44.3509 14.5059 44.3444 14.375 44.335V51.8219C14.4898 51.8023 14.6068 51.7897 14.7272 51.7897Z" fill="#883F2E"/>
</g>
<g filter="url(#filter5_i_766_1434)">
<path d="M31.6349 53.8798V68.2429C31.6349 69.521 30.599 70.5569 29.321 70.5569H14.727C13.449 70.5569 12.4131 69.521 12.4131 68.2429V53.8798C12.4131 52.6018 13.449 51.5659 14.727 51.5659H29.321C30.5988 51.5659 31.6349 52.6018 31.6349 53.8798Z" fill="#CA6E59"/>
</g>
<g filter="url(#filter6_i_766_1434)">
<path d="M39.9715 105.531V100.696C39.9715 99.4182 38.9356 98.3823 37.6575 98.3823H6.3901C5.11207 98.3823 4.07617 99.4182 4.07617 100.696V105.531H39.9715Z" fill="#CA6E59"/>
</g>
<g filter="url(#filter7_i_766_1434)">
<path d="M44.0481 114.999H1.15696C0.517949 114.999 0 114.481 0 113.842V107.62C0 106.342 1.0359 105.306 2.31393 105.306H41.7342C43.0122 105.306 44.0481 106.342 44.0481 107.62V114.999Z" fill="#883F2E"/>
</g>
<g filter="url(#filter8_i_766_1434)">
<path d="M34.9483 83.2159C34.9483 86.3478 32.4093 88.8868 29.2774 88.8868H14.7705C11.6386 88.8868 9.09961 86.3478 9.09961 83.2159C9.09961 80.0839 11.6386 77.5449 14.7705 77.5449H29.2774C32.4093 77.5451 34.9483 80.0839 34.9483 83.2159Z" fill="#CA6E59"/>
</g>
<g filter="url(#filter9_i_766_1434)">
<path d="M34.9483 38.9038C34.9483 42.0358 32.4093 44.5748 29.2774 44.5748H14.7705C11.6386 44.5748 9.09961 42.0358 9.09961 38.9038C9.09961 35.7719 11.6386 33.2329 14.7705 33.2329H29.2774C32.4093 33.2329 34.9483 35.7719 34.9483 38.9038Z" fill="#CA6E59"/>
</g>
<path d="M59.6895 43.2569C68.6565 43.2569 75.9258 35.9876 75.9258 27.0205C75.9258 18.0534 68.6565 10.7842 59.6895 10.7842C50.7224 10.7842 43.4531 18.0534 43.4531 27.0205C43.4531 35.9876 50.7224 43.2569 59.6895 43.2569Z" fill="#EC607E"/>
<g filter="url(#filter10_d_766_1434)">
<path d="M59.6902 44.9414C49.8088 44.9414 41.7695 36.9022 41.7695 27.0205C41.7695 17.1388 49.8088 9.09961 59.6902 9.09961C69.5719 9.09961 77.6111 17.1388 77.6111 27.0205C77.6111 36.9022 69.5719 44.9414 59.6902 44.9414ZM59.6902 12.4688C51.6663 12.4688 45.1387 18.9966 45.1387 27.0205C45.1387 35.0445 51.6665 41.5723 59.6902 41.5723C67.7139 41.5723 74.242 35.0445 74.242 27.0205C74.242 18.9966 67.7142 12.4688 59.6902 12.4688Z" fill="#0BBBEF"/>
</g>
<g filter="url(#filter11_i_766_1434)">
<path d="M58.85 33.366C58.4187 33.366 57.9877 33.2016 57.6586 32.8725L52.3206 27.5345C51.6627 26.8766 51.6627 25.8099 52.3206 25.1522C52.9787 24.4944 54.0451 24.4944 54.703 25.1522L58.8497 29.299L65.9326 22.2162C66.5909 21.558 67.6573 21.5583 68.315 22.2162C68.9729 22.874 68.9729 23.9407 68.315 24.5984L60.0408 32.8723C59.7122 33.2016 59.281 33.366 58.85 33.366Z" fill="white"/>
</g>
<path d="M84.8107 77.3638H52.8955C51.965 77.3638 51.2109 76.6095 51.2109 75.6792C51.2109 74.7489 51.965 73.9946 52.8955 73.9946H84.8107C85.7413 73.9946 86.4953 74.7489 86.4953 75.6792C86.4953 76.6095 85.7413 77.3638 84.8107 77.3638Z" fill="#F6A96C"/>
<path d="M84.8114 85.8042H68.3574C67.4269 85.8042 66.6729 85.05 66.6729 84.1196C66.6729 83.1893 67.4269 82.4351 68.3574 82.4351H84.8114C85.742 82.4351 86.496 83.1893 86.496 84.1196C86.496 85.05 85.742 85.8042 84.8114 85.8042Z" fill="#F6A96C"/>
<path d="M62.3408 85.8042H52.8955C51.965 85.8042 51.2109 85.05 51.2109 84.1196C51.2109 83.1893 51.965 82.4351 52.8955 82.4351H62.3408C63.2713 82.4351 64.0254 83.1893 64.0254 84.1196C64.0254 85.05 63.2711 85.8042 62.3408 85.8042Z" fill="#F6A96C"/>
<path d="M84.8107 94.2446H52.8955C51.965 94.2446 51.2109 93.4904 51.2109 92.5601C51.2109 91.6297 51.965 90.8755 52.8955 90.8755H84.8107C85.7413 90.8755 86.4953 91.6297 86.4953 92.5601C86.4953 93.4904 85.7413 94.2446 84.8107 94.2446Z" fill="#F6A96C"/>
<path d="M84.8113 102.685H76.4561C75.5255 102.685 74.7715 101.931 74.7715 101C74.7715 100.07 75.5255 99.3159 76.4561 99.3159H84.8113C85.7419 99.3159 86.4959 100.07 86.4959 101C86.4959 101.931 85.7419 102.685 84.8113 102.685Z" fill="#F6A96C"/>
<path d="M71.1333 102.685H52.8955C51.965 102.685 51.2109 101.931 51.2109 101C51.2109 100.07 51.965 99.3159 52.8955 99.3159H71.1333C72.0639 99.3159 72.8179 100.07 72.8179 101C72.8179 101.931 72.0639 102.685 71.1333 102.685Z" fill="#F6A96C"/>
<defs>
<filter id="filter0_ii_766_1434" x="21.6895" y="0" width="79" height="115" filterUnits="userSpaceOnUse" color-interpolation-filters="sRGB">
<feFlood flood-opacity="0" result="BackgroundImageFix"/>
<feBlend mode="normal" in="SourceGraphic" in2="BackgroundImageFix" result="shape"/>
<feColorMatrix in="SourceAlpha" type="matrix" values="0 0 0 0 0 0 0 0 0 0 0 0 0 0 0 0 0 0 127 0" result="hardAlpha"/>
<feOffset dx="3"/>
<feGaussianBlur stdDeviation="9.5"/>
<feComposite in2="hardAlpha" operator="arithmetic" k2="-1" k3="1"/>
<feColorMatrix type="matrix" values="0 0 0 0 0.758333 0 0 0 0 0.543472 0 0 0 0 0.167465 0 0 0 0.46 0"/>
<feBlend mode="normal" in2="shape" result="effect1_innerShadow_766_1434"/>
<feColorMatrix in="SourceAlpha" type="matrix" values="0 0 0 0 0 0 0 0 0 0 0 0 0 0 0 0 0 0 127 0" result="hardAlpha"/>
<feOffset dx="2"/>
<feComposite in2="hardAlpha" operator="arithmetic" k2="-1" k3="1"/>
<feColorMatrix type="matrix" values="0 0 0 0 0 0 0 0 0 0 0 0 0 0 0 0 0 0 0.25 0"/>
<feBlend mode="normal" in2="effect1_innerShadow_766_1434" result="effect2_innerShadow_766_1434"/>
</filter>
<filter id="filter1_i_766_1434" x="31.4102" y="55.1045" width="33.8418" height="9.9126" filterUnits="userSpaceOnUse" color-interpolation-filters="sRGB">
<feFlood flood-opacity="0" result="BackgroundImageFix"/>
<feBlend mode="normal" in="SourceGraphic" in2="BackgroundImageFix" result="shape"/>
<feColorMatrix in="SourceAlpha" type="matrix" values="0 0 0 0 0 0 0 0 0 0 0 0 0 0 0 0 0 0 127 0" result="hardAlpha"/>
<feOffset dy="-2"/>
<feGaussianBlur stdDeviation="1"/>
<feComposite in2="hardAlpha" operator="arithmetic" k2="-1" k3="1"/>
<feColorMatrix type="matrix" values="0 0 0 0 0 0 0 0 0 0 0 0 0 0 0 0 0 0 0.25 0"/>
<feBlend mode="normal" in2="shape" result="effect1_innerShadow_766_1434"/>
</filter>
<filter id="filter2_i_766_1434" x="63.0303" y="51.2573" width="44.9932" height="15.6055" filterUnits="userSpaceOnUse" color-interpolation-filters="sRGB">
<feFlood flood-opacity="0" result="BackgroundImageFix"/>
<feBlend mode="normal" in="SourceGraphic" in2="BackgroundImageFix" result="shape"/>
<feColorMatrix in="SourceAlpha" type="matrix" values="0 0 0 0 0 0 0 0 0 0 0 0 0 0 0 0 0 0 127 0" result="hardAlpha"/>
<feOffset dx="-2" dy="-4"/>
<feGaussianBlur stdDeviation="2"/>
<feComposite in2="hardAlpha" operator="arithmetic" k2="-1" k3="1"/>
<feColorMatrix type="matrix" values="0 0 0 0 0 0 0 0 0 0 0 0 0 0 0 0 0 0 0.25 0"/>
<feBlend mode="normal" in2="shape" result="effect1_innerShadow_766_1434"/>
</filter>
<filter id="filter3_i_766_1434" x="42.3467" y="55.2573" width="9.38574" height="11.6055" filterUnits="userSpaceOnUse" color-interpolation-filters="sRGB">
<feFlood flood-opacity="0" result="BackgroundImageFix"/>
<feBlend mode="normal" in="SourceGraphic" in2="BackgroundImageFix" result="shape"/>
<feColorMatrix in="SourceAlpha" type="matrix" values="0 0 0 0 0 0 0 0 0 0 0 0 0 0 0 0 0 0 127 0" result="hardAlpha"/>
<feOffset dx="3"/>
<feGaussianBlur stdDeviation="1"/>
<feComposite in2="hardAlpha" operator="arithmetic" k2="-1" k3="1"/>
<feColorMatrix type="matrix" values="0 0 0 0 0 0 0 0 0 0 0 0 0 0 0 0 0 0 0.25 0"/>
<feBlend mode="normal" in2="shape" result="effect1_innerShadow_766_1434"/>
</filter>
<filter id="filter4_i_766_1434" x="14.375" y="43.335" width="18.2988" height="34.4507" filterUnits="userSpaceOnUse" color-interpolation-filters="sRGB">
<feFlood flood-opacity="0" result="BackgroundImageFix"/>
<feBlend mode="normal" in="SourceGraphic" in2="BackgroundImageFix" result="shape"/>
<feColorMatrix in="SourceAlpha" type="matrix" values="0 0 0 0 0 0 0 0 0 0 0 0 0 0 0 0 0 0 127 0" result="hardAlpha"/>
<feOffset dx="4" dy="-1"/>
<feGaussianBlur stdDeviation="1.5"/>
<feComposite in2="hardAlpha" operator="arithmetic" k2="-1" k3="1"/>
<feColorMatrix type="matrix" values="0 0 0 0 0 0 0 0 0 0 0 0 0 0 0 0 0 0 0.25 0"/>
<feBlend mode="normal" in2="shape" result="effect1_innerShadow_766_1434"/>
</filter>
<filter id="filter5_i_766_1434" x="12.4131" y="51.5659" width="23.2217" height="19.9907" filterUnits="userSpaceOnUse" color-interpolation-filters="sRGB">
<feFlood flood-opacity="0" result="BackgroundImageFix"/>
<feBlend mode="normal" in="SourceGraphic" in2="BackgroundImageFix" result="shape"/>
<feColorMatrix in="SourceAlpha" type="matrix" values="0 0 0 0 0 0 0 0 0 0 0 0 0 0 0 0 0 0 127 0" result="hardAlpha"/>
<feOffset dx="5" dy="1"/>
<feGaussianBlur stdDeviation="2"/>
<feComposite in2="hardAlpha" operator="arithmetic" k2="-1" k3="1"/>
<feColorMatrix type="matrix" values="0 0 0 0 0 0 0 0 0 0 0 0 0 0 0 0 0 0 0.25 0"/>
<feBlend mode="normal" in2="shape" result="effect1_innerShadow_766_1434"/>
</filter>
<filter id="filter6_i_766_1434" x="4.07617" y="97.3823" width="38.8955" height="8.14844" filterUnits="userSpaceOnUse" color-interpolation-filters="sRGB">
<feFlood flood-opacity="0" result="BackgroundImageFix"/>
<feBlend mode="normal" in="SourceGraphic" in2="BackgroundImageFix" result="shape"/>
<feColorMatrix in="SourceAlpha" type="matrix" values="0 0 0 0 0 0 0 0 0 0 0 0 0 0 0 0 0 0 127 0" result="hardAlpha"/>
<feOffset dx="6" dy="-1"/>
<feGaussianBlur stdDeviation="1.5"/>
<feComposite in2="hardAlpha" operator="arithmetic" k2="-1" k3="1"/>
<feColorMatrix type="matrix" values="0 0 0 0 0 0 0 0 0 0 0 0 0 0 0 0 0 0 0.25 0"/>
<feBlend mode="normal" in2="shape" result="effect1_innerShadow_766_1434"/>
</filter>
<filter id="filter7_i_766_1434" x="0" y="105.306" width="47.0479" height="9.69336" filterUnits="userSpaceOnUse" color-interpolation-filters="sRGB">
<feFlood flood-opacity="0" result="BackgroundImageFix"/>
<feBlend mode="normal" in="SourceGraphic" in2="BackgroundImageFix" result="shape"/>
<feColorMatrix in="SourceAlpha" type="matrix" values="0 0 0 0 0 0 0 0 0 0 0 0 0 0 0 0 0 0 127 0" result="hardAlpha"/>
<feOffset dx="9"/>
<feGaussianBlur stdDeviation="1.5"/>
<feComposite in2="hardAlpha" operator="arithmetic" k2="-1" k3="1"/>
<feColorMatrix type="matrix" values="0 0 0 0 0 0 0 0 0 0 0 0 0 0 0 0 0 0 0.25 0"/>
<feBlend mode="normal" in2="shape" result="effect1_innerShadow_766_1434"/>
</filter>
<filter id="filter8_i_766_1434" x="9.09961" y="77.5449" width="28.8486" height="11.3418" filterUnits="userSpaceOnUse" color-interpolation-filters="sRGB">
<feFlood flood-opacity="0" result="BackgroundImageFix"/>
<feBlend mode="normal" in="SourceGraphic" in2="BackgroundImageFix" result="shape"/>
<feColorMatrix in="SourceAlpha" type="matrix" values="0 0 0 0 0 0 0 0 0 0 0 0 0 0 0 0 0 0 127 0" result="hardAlpha"/>
<feOffset dx="4"/>
<feGaussianBlur stdDeviation="1.5"/>
<feComposite in2="hardAlpha" operator="arithmetic" k2="-1" k3="1"/>
<feColorMatrix type="matrix" values="0 0 0 0 0 0 0 0 0 0 0 0 0 0 0 0 0 0 0.25 0"/>
<feBlend mode="normal" in2="shape" result="effect1_innerShadow_766_1434"/>
</filter>
<filter id="filter9_i_766_1434" x="9.09961" y="33.2329" width="27.8486" height="11.3418" filterUnits="userSpaceOnUse" color-interpolation-filters="sRGB">
<feFlood flood-opacity="0" result="BackgroundImageFix"/>
<feBlend mode="normal" in="SourceGraphic" in2="BackgroundImageFix" result="shape"/>
<feColorMatrix in="SourceAlpha" type="matrix" values="0 0 0 0 0 0 0 0 0 0 0 0 0 0 0 0 0 0 127 0" result="hardAlpha"/>
<feOffset dx="2"/>
<feGaussianBlur stdDeviation="2"/>
<feComposite in2="hardAlpha" operator="arithmetic" k2="-1" k3="1"/>
<feColorMatrix type="matrix" values="0 0 0 0 0 0 0 0 0 0 0 0 0 0 0 0 0 0 0.25 0"/>
<feBlend mode="normal" in2="shape" result="effect1_innerShadow_766_1434"/>
</filter>
<filter id="filter10_d_766_1434" x="37.7695" y="6.09961" width="43.8418" height="43.8418" filterUnits="userSpaceOnUse" color-interpolation-filters="sRGB">
<feFlood flood-opacity="0" result="BackgroundImageFix"/>
<feColorMatrix in="SourceAlpha" type="matrix" values="0 0 0 0 0 0 0 0 0 0 0 0 0 0 0 0 0 0 127 0" result="hardAlpha"/>
<feOffset dy="1"/>
<feGaussianBlur stdDeviation="2"/>
<feComposite in2="hardAlpha" operator="out"/>
<feColorMatrix type="matrix" values="0 0 0 0 0 0 0 0 0 0 0 0 0 0 0 0 0 0 0.25 0"/>
<feBlend mode="normal" in2="BackgroundImageFix" result="effect1_dropShadow_766_1434"/>
<feBlend mode="normal" in="SourceGraphic" in2="effect1_dropShadow_766_1434" result="shape"/>
</filter>
<filter id="filter11_i_766_1434" x="51.8271" y="20.7227" width="16.9814" height="12.6436" filterUnits="userSpaceOnUse" color-interpolation-filters="sRGB">
<feFlood flood-opacity="0" result="BackgroundImageFix"/>
<feBlend mode="normal" in="SourceGraphic" in2="BackgroundImageFix" result="shape"/>
<feColorMatrix in="SourceAlpha" type="matrix" values="0 0 0 0 0 0 0 0 0 0 0 0 0 0 0 0 0 0 127 0" result="hardAlpha"/>
<feOffset dy="-1"/>
<feGaussianBlur stdDeviation="1"/>
<feComposite in2="hardAlpha" operator="arithmetic" k2="-1" k3="1"/>
<feColorMatrix type="matrix" values="0 0 0 0 0 0 0 0 0 0 0 0 0 0 0 0 0 0 0.25 0"/>
<feBlend mode="normal" in2="shape" result="effect1_innerShadow_766_1434"/>
</filter>
</defs>
</svg>
