<svg width="88" height="115" viewBox="0 0 88 115" fill="none" xmlns="http://www.w3.org/2000/svg">
<g filter="url(#filter0_i_766_1383)">
<path d="M16.3626 45.6869L5.76123 35.0847C4.1486 33.4729 4.1486 30.8583 5.76123 29.2466C7.37385 27.634 9.98757 27.634 11.5993 29.2466L22.2016 39.848L16.3626 45.6869Z" fill="#F97473"/>
</g>
<g filter="url(#filter1_i_766_1383)">
<path d="M37.9067 115C33.5865 115 30.084 111.498 30.084 107.177V96.9653H45.7294V107.177C45.7294 111.498 42.2269 115 37.9067 115Z" fill="#F97473"/>
</g>
<g filter="url(#filter2_i_766_1383)">
<path d="M71.7817 103.101C67.4615 103.101 63.959 99.5993 63.959 95.2791V85.0664H79.6035V95.2791C79.6035 99.5993 76.1019 103.101 71.7817 103.101Z" fill="#F97473"/>
</g>
<g filter="url(#filter3_i_766_1383)">
<path d="M12.3736 99.9278C8.05338 99.9278 4.55176 96.4253 4.55176 92.1051V76.0771H20.1963V92.1051C20.1963 96.4253 16.6938 99.9278 12.3736 99.9278Z" fill="#F97473"/>
</g>
<g filter="url(#filter4_i_766_1383)">
<path d="M4.54222 43.2133C-6.12759 61.6935 2.64182 86.7322 24.1289 99.1384C45.6159 111.545 71.6846 106.62 82.3553 88.1395C93.0251 69.6593 84.2557 44.6206 62.7687 32.2145C41.2808 19.8092 15.212 24.733 4.54222 43.2133Z" fill="#F9A2A1"/>
</g>
<path d="M37.1769 60.8817C39.6775 57.9433 42.6922 55.1892 46.1666 52.7764C47.0668 52.1517 47.9775 51.5674 48.8952 51.0164L47.044 48.415C44.9339 45.4494 40.5864 45.2353 37.3349 47.9377C34.0824 50.6391 33.1577 55.2331 35.2678 58.1986L37.1769 60.8817Z" fill="#FAB5B4"/>
<path d="M77.5747 45.9623L78.0239 42.3194C78.4451 38.9029 76.106 36.4813 72.7991 36.9113C69.4932 37.3412 66.4715 40.4594 66.0503 43.8759L65.9082 45.0314C70.1003 44.5559 74.0836 44.8647 77.5747 45.9623Z" fill="#FAB5B4"/>
<path d="M75.3611 45.3882L75.6094 43.3781C75.8665 41.2864 74.4346 39.8037 72.4105 40.0669C70.3864 40.3301 68.536 42.2393 68.278 44.331L68.2148 44.8451C70.7163 44.7328 73.1185 44.9162 75.3611 45.3882Z" fill="#FBC7C6"/>
<path d="M39.2172 58.6431C41.2659 56.5426 43.5901 54.565 46.1669 52.776C46.245 52.7216 46.3231 52.6707 46.4021 52.6172L45.2281 50.9686C43.9366 49.1524 41.2747 49.0217 39.2839 50.6765C37.2931 52.3303 36.7263 55.1432 38.0178 56.9585L39.2172 58.6431Z" fill="#FBC7C6"/>
<g filter="url(#filter5_i_766_1383)">
<path d="M87.3778 75.1617C87.3778 81.12 82.4268 88.8085 76.3202 92.3347C70.2128 95.8609 65.2617 93.8885 65.2617 87.9302C65.2617 81.9711 70.2128 74.2826 76.3202 70.7564C82.4268 67.2311 87.3778 69.2025 87.3778 75.1617Z" fill="#F97473"/>
</g>
<g filter="url(#filter6_i_766_1383)">
<path d="M71.9158 90.5419L71.6499 90.6954C70.6646 91.264 69.8662 90.6603 69.8662 89.3469V81.196C69.8662 79.8826 70.6646 78.3568 71.6499 77.7883L71.9158 77.6339C72.9011 77.0653 73.6995 77.669 73.6995 78.9824V87.1341C73.6995 88.4476 72.9011 89.9733 71.9158 90.5419Z" fill="#97463C"/>
</g>
<g filter="url(#filter7_i_766_1383)">
<path d="M80.99 85.3031L80.7241 85.4566C79.7388 86.0261 78.9404 85.4216 78.9404 84.109V75.9573C78.9404 74.6438 79.7388 73.1181 80.7241 72.5495L80.99 72.3951C81.9753 71.8265 82.7737 72.4302 82.7737 73.7436V81.8954C82.7737 83.2088 81.9753 84.7346 80.99 85.3031Z" fill="#97463C"/>
</g>
<g filter="url(#filter8_i_766_1383)">
<path d="M62.735 70.0794C62.735 71.871 61.2821 73.3248 59.4896 73.3248C57.6971 73.3248 56.2441 71.871 56.2441 70.0794C56.2441 68.2869 57.6971 66.834 59.4896 66.834C61.2821 66.834 62.735 68.2869 62.735 70.0794Z" fill="#97463C"/>
</g>
<g filter="url(#filter9_i_766_1383)">
<path d="M84.1013 61.2425C84.1013 63.035 82.6484 64.4879 80.8559 64.4879C79.0643 64.4879 77.6113 63.035 77.6113 61.2425C77.6113 59.45 79.0643 57.9971 80.8559 57.9971C82.6484 57.9971 84.1013 59.45 84.1013 61.2425Z" fill="#97463C"/>
</g>
<g filter="url(#filter10_i_766_1383)">
<path d="M55.2893 47.3669C54.4497 47.3669 53.6109 47.0387 52.9836 46.386C52.9178 46.3175 46.2707 39.5284 34.7341 35.3003C33.0749 34.6922 32.223 32.8541 32.831 31.195C33.4391 29.5359 35.2772 28.6839 36.9363 29.292C49.9408 34.0579 57.2933 41.6341 57.6003 41.9543C58.8225 43.2309 58.7787 45.2568 57.5021 46.479C56.8826 47.0721 56.0851 47.3669 55.2893 47.3669Z" fill="#97463C"/>
</g>
<g filter="url(#filter11_i_766_1383)">
<path d="M60.5748 23.7006C60.5748 15.1049 55.3491 5.11947 48.9021 1.39762C46.2095 -0.157097 43.7309 -0.368545 41.7559 0.534278L41.7541 0.529892L36.5495 3.56299C36.5495 3.56299 32.2275 5.30196 32.2275 13.158C32.2275 21.7528 37.4532 31.7392 43.9002 35.461C47.0904 37.3026 49.9804 37.2632 52.0879 35.7137L52.0888 35.7155L56.538 33.1368C59.0096 31.7093 60.5748 28.4025 60.5748 23.7006Z" fill="#FFE44A"/>
</g>
<g filter="url(#filter12_i_766_1383)">
<path d="M55.5737 26.6363C55.5737 35.232 50.3472 39.1828 43.9011 35.461C37.4541 31.7391 32.2275 21.7537 32.2275 13.158C32.2275 4.56229 37.4541 0.611443 43.9011 4.33329C50.3472 8.05514 55.5737 18.0406 55.5737 26.6363Z" fill="#FFD800"/>
</g>
<path d="M51.9149 24.5238C51.9149 30.4242 48.3273 33.1361 43.9018 30.5812C39.4763 28.0263 35.8887 21.1713 35.8887 15.2709C35.8887 9.37055 39.4763 6.65857 43.9018 9.2135C48.3273 11.7684 51.9149 18.6234 51.9149 24.5238Z" fill="#C3A600"/>
<g filter="url(#filter13_i_766_1383)">
<path d="M49.4298 23.0889C49.4298 27.1599 46.9547 29.0305 43.9014 27.2678C40.8481 25.5052 38.373 20.7761 38.373 16.7051C38.373 12.6349 40.8481 10.7634 43.9014 12.5261C46.9547 14.2888 49.4298 19.0178 49.4298 23.0889Z" fill="#FFD800"/>
</g>
<defs>
<filter id="filter0_i_766_1383" x="4.55176" y="23.0371" width="19.6494" height="22.6499" filterUnits="userSpaceOnUse" color-interpolation-filters="sRGB">
<feFlood flood-opacity="0" result="BackgroundImageFix"/>
<feBlend mode="normal" in="SourceGraphic" in2="BackgroundImageFix" result="shape"/>
<feColorMatrix in="SourceAlpha" type="matrix" values="0 0 0 0 0 0 0 0 0 0 0 0 0 0 0 0 0 0 127 0" result="hardAlpha"/>
<feOffset dx="2" dy="-5"/>
<feGaussianBlur stdDeviation="3"/>
<feComposite in2="hardAlpha" operator="arithmetic" k2="-1" k3="1"/>
<feColorMatrix type="matrix" values="0 0 0 0 0.683333 0 0 0 0 0.0996528 0 0 0 0 0.0996528 0 0 0 1 0"/>
<feBlend mode="normal" in2="shape" result="effect1_innerShadow_766_1383"/>
</filter>
<filter id="filter1_i_766_1383" x="30.084" y="96.9653" width="19.6455" height="22.0347" filterUnits="userSpaceOnUse" color-interpolation-filters="sRGB">
<feFlood flood-opacity="0" result="BackgroundImageFix"/>
<feBlend mode="normal" in="SourceGraphic" in2="BackgroundImageFix" result="shape"/>
<feColorMatrix in="SourceAlpha" type="matrix" values="0 0 0 0 0 0 0 0 0 0 0 0 0 0 0 0 0 0 127 0" result="hardAlpha"/>
<feOffset dx="7" dy="14"/>
<feGaussianBlur stdDeviation="2"/>
<feComposite in2="hardAlpha" operator="arithmetic" k2="-1" k3="1"/>
<feColorMatrix type="matrix" values="0 0 0 0 0.608333 0 0 0 0 0 0 0 0 0 0 0 0 0 0.58 0"/>
<feBlend mode="normal" in2="shape" result="effect1_innerShadow_766_1383"/>
</filter>
<filter id="filter2_i_766_1383" x="63.959" y="85.0664" width="19.6445" height="22.0347" filterUnits="userSpaceOnUse" color-interpolation-filters="sRGB">
<feFlood flood-opacity="0" result="BackgroundImageFix"/>
<feBlend mode="normal" in="SourceGraphic" in2="BackgroundImageFix" result="shape"/>
<feColorMatrix in="SourceAlpha" type="matrix" values="0 0 0 0 0 0 0 0 0 0 0 0 0 0 0 0 0 0 127 0" result="hardAlpha"/>
<feOffset dx="7" dy="14"/>
<feGaussianBlur stdDeviation="2"/>
<feComposite in2="hardAlpha" operator="arithmetic" k2="-1" k3="1"/>
<feColorMatrix type="matrix" values="0 0 0 0 0.608333 0 0 0 0 0 0 0 0 0 0 0 0 0 0.58 0"/>
<feBlend mode="normal" in2="shape" result="effect1_innerShadow_766_1383"/>
</filter>
<filter id="filter3_i_766_1383" x="4.55176" y="76.0771" width="19.6445" height="27.8506" filterUnits="userSpaceOnUse" color-interpolation-filters="sRGB">
<feFlood flood-opacity="0" result="BackgroundImageFix"/>
<feBlend mode="normal" in="SourceGraphic" in2="BackgroundImageFix" result="shape"/>
<feColorMatrix in="SourceAlpha" type="matrix" values="0 0 0 0 0 0 0 0 0 0 0 0 0 0 0 0 0 0 127 0" result="hardAlpha"/>
<feOffset dx="7" dy="14"/>
<feGaussianBlur stdDeviation="2"/>
<feComposite in2="hardAlpha" operator="arithmetic" k2="-1" k3="1"/>
<feColorMatrix type="matrix" values="0 0 0 0 0.608333 0 0 0 0 0 0 0 0 0 0 0 0 0 0.58 0"/>
<feBlend mode="normal" in2="shape" result="effect1_innerShadow_766_1383"/>
</filter>
<filter id="filter4_i_766_1383" x="0" y="8.37012" width="90.8975" height="97.6128" filterUnits="userSpaceOnUse" color-interpolation-filters="sRGB">
<feFlood flood-opacity="0" result="BackgroundImageFix"/>
<feBlend mode="normal" in="SourceGraphic" in2="BackgroundImageFix" result="shape"/>
<feColorMatrix in="SourceAlpha" type="matrix" values="0 0 0 0 0 0 0 0 0 0 0 0 0 0 0 0 0 0 127 0" result="hardAlpha"/>
<feOffset dx="4" dy="-17"/>
<feGaussianBlur stdDeviation="8.5"/>
<feComposite in2="hardAlpha" operator="arithmetic" k2="-1" k3="1"/>
<feColorMatrix type="matrix" values="0 0 0 0 0.533333 0 0 0 0 0.0977778 0 0 0 0 0.228445 0 0 0 0.6 0"/>
<feBlend mode="normal" in2="shape" result="effect1_innerShadow_766_1383"/>
</filter>
<filter id="filter5_i_766_1383" x="63.2617" y="69.0073" width="24.1162" height="34.0767" filterUnits="userSpaceOnUse" color-interpolation-filters="sRGB">
<feFlood flood-opacity="0" result="BackgroundImageFix"/>
<feBlend mode="normal" in="SourceGraphic" in2="BackgroundImageFix" result="shape"/>
<feColorMatrix in="SourceAlpha" type="matrix" values="0 0 0 0 0 0 0 0 0 0 0 0 0 0 0 0 0 0 127 0" result="hardAlpha"/>
<feOffset dx="-2" dy="9"/>
<feGaussianBlur stdDeviation="9.5"/>
<feComposite in2="hardAlpha" operator="arithmetic" k2="-1" k3="1"/>
<feColorMatrix type="matrix" values="0 0 0 0 0.541667 0 0 0 0 0.108333 0 0 0 0 0.108333 0 0 0 0.6 0"/>
<feBlend mode="normal" in2="shape" result="effect1_innerShadow_766_1383"/>
</filter>
<filter id="filter6_i_766_1383" x="69.8662" y="77.4199" width="3.83301" height="15.4893" filterUnits="userSpaceOnUse" color-interpolation-filters="sRGB">
<feFlood flood-opacity="0" result="BackgroundImageFix"/>
<feBlend mode="normal" in="SourceGraphic" in2="BackgroundImageFix" result="shape"/>
<feColorMatrix in="SourceAlpha" type="matrix" values="0 0 0 0 0 0 0 0 0 0 0 0 0 0 0 0 0 0 127 0" result="hardAlpha"/>
<feOffset dy="2"/>
<feGaussianBlur stdDeviation="1"/>
<feComposite in2="hardAlpha" operator="arithmetic" k2="-1" k3="1"/>
<feColorMatrix type="matrix" values="0 0 0 0 0 0 0 0 0 0 0 0 0 0 0 0 0 0 0.25 0"/>
<feBlend mode="normal" in2="shape" result="effect1_innerShadow_766_1383"/>
</filter>
<filter id="filter7_i_766_1383" x="78.9404" y="72.1812" width="3.83301" height="15.4897" filterUnits="userSpaceOnUse" color-interpolation-filters="sRGB">
<feFlood flood-opacity="0" result="BackgroundImageFix"/>
<feBlend mode="normal" in="SourceGraphic" in2="BackgroundImageFix" result="shape"/>
<feColorMatrix in="SourceAlpha" type="matrix" values="0 0 0 0 0 0 0 0 0 0 0 0 0 0 0 0 0 0 127 0" result="hardAlpha"/>
<feOffset dy="2"/>
<feGaussianBlur stdDeviation="1"/>
<feComposite in2="hardAlpha" operator="arithmetic" k2="-1" k3="1"/>
<feColorMatrix type="matrix" values="0 0 0 0 0 0 0 0 0 0 0 0 0 0 0 0 0 0 0.25 0"/>
<feBlend mode="normal" in2="shape" result="effect1_innerShadow_766_1383"/>
</filter>
<filter id="filter8_i_766_1383" x="56.2441" y="66.834" width="6.49121" height="7.49072" filterUnits="userSpaceOnUse" color-interpolation-filters="sRGB">
<feFlood flood-opacity="0" result="BackgroundImageFix"/>
<feBlend mode="normal" in="SourceGraphic" in2="BackgroundImageFix" result="shape"/>
<feColorMatrix in="SourceAlpha" type="matrix" values="0 0 0 0 0 0 0 0 0 0 0 0 0 0 0 0 0 0 127 0" result="hardAlpha"/>
<feOffset dy="1"/>
<feGaussianBlur stdDeviation="2"/>
<feComposite in2="hardAlpha" operator="arithmetic" k2="-1" k3="1"/>
<feColorMatrix type="matrix" values="0 0 0 0 0 0 0 0 0 0 0 0 0 0 0 0 0 0 0.56 0"/>
<feBlend mode="normal" in2="shape" result="effect1_innerShadow_766_1383"/>
</filter>
<filter id="filter9_i_766_1383" x="77.6113" y="57.9971" width="6.49023" height="7.49072" filterUnits="userSpaceOnUse" color-interpolation-filters="sRGB">
<feFlood flood-opacity="0" result="BackgroundImageFix"/>
<feBlend mode="normal" in="SourceGraphic" in2="BackgroundImageFix" result="shape"/>
<feColorMatrix in="SourceAlpha" type="matrix" values="0 0 0 0 0 0 0 0 0 0 0 0 0 0 0 0 0 0 127 0" result="hardAlpha"/>
<feOffset dy="1"/>
<feGaussianBlur stdDeviation="2"/>
<feComposite in2="hardAlpha" operator="arithmetic" k2="-1" k3="1"/>
<feColorMatrix type="matrix" values="0 0 0 0 0 0 0 0 0 0 0 0 0 0 0 0 0 0 0.56 0"/>
<feBlend mode="normal" in2="shape" result="effect1_innerShadow_766_1383"/>
</filter>
<filter id="filter10_i_766_1383" x="32.6348" y="26.0957" width="27.8545" height="21.271" filterUnits="userSpaceOnUse" color-interpolation-filters="sRGB">
<feFlood flood-opacity="0" result="BackgroundImageFix"/>
<feBlend mode="normal" in="SourceGraphic" in2="BackgroundImageFix" result="shape"/>
<feColorMatrix in="SourceAlpha" type="matrix" values="0 0 0 0 0 0 0 0 0 0 0 0 0 0 0 0 0 0 127 0" result="hardAlpha"/>
<feOffset dx="2" dy="-5"/>
<feGaussianBlur stdDeviation="1.5"/>
<feComposite in2="hardAlpha" operator="arithmetic" k2="-1" k3="1"/>
<feColorMatrix type="matrix" values="0 0 0 0 0 0 0 0 0 0 0 0 0 0 0 0 0 0 0.25 0"/>
<feBlend mode="normal" in2="shape" result="effect1_innerShadow_766_1383"/>
</filter>
<filter id="filter11_i_766_1383" x="32.2275" y="-9" width="30.3477" height="45.8604" filterUnits="userSpaceOnUse" color-interpolation-filters="sRGB">
<feFlood flood-opacity="0" result="BackgroundImageFix"/>
<feBlend mode="normal" in="SourceGraphic" in2="BackgroundImageFix" result="shape"/>
<feColorMatrix in="SourceAlpha" type="matrix" values="0 0 0 0 0 0 0 0 0 0 0 0 0 0 0 0 0 0 127 0" result="hardAlpha"/>
<feOffset dx="2" dy="-9"/>
<feGaussianBlur stdDeviation="5"/>
<feComposite in2="hardAlpha" operator="arithmetic" k2="-1" k3="1"/>
<feColorMatrix type="matrix" values="0 0 0 0 0.5125 0 0 0 0 0.33825 0 0 0 0 0 0 0 0 0.69 0"/>
<feBlend mode="normal" in2="shape" result="effect1_innerShadow_766_1383"/>
</filter>
<filter id="filter12_i_766_1383" x="32.2275" y="2.93262" width="23.3467" height="39.9292" filterUnits="userSpaceOnUse" color-interpolation-filters="sRGB">
<feFlood flood-opacity="0" result="BackgroundImageFix"/>
<feBlend mode="normal" in="SourceGraphic" in2="BackgroundImageFix" result="shape"/>
<feColorMatrix in="SourceAlpha" type="matrix" values="0 0 0 0 0 0 0 0 0 0 0 0 0 0 0 0 0 0 127 0" result="hardAlpha"/>
<feOffset dy="6"/>
<feGaussianBlur stdDeviation="5"/>
<feComposite in2="hardAlpha" operator="arithmetic" k2="-1" k3="1"/>
<feColorMatrix type="matrix" values="0 0 0 0 0 0 0 0 0 0 0 0 0 0 0 0 0 0 0.24 0"/>
<feBlend mode="normal" in2="shape" result="effect1_innerShadow_766_1383"/>
</filter>
<filter id="filter13_i_766_1383" x="38.373" y="11.8628" width="11.0566" height="18.0684" filterUnits="userSpaceOnUse" color-interpolation-filters="sRGB">
<feFlood flood-opacity="0" result="BackgroundImageFix"/>
<feBlend mode="normal" in="SourceGraphic" in2="BackgroundImageFix" result="shape"/>
<feColorMatrix in="SourceAlpha" type="matrix" values="0 0 0 0 0 0 0 0 0 0 0 0 0 0 0 0 0 0 127 0" result="hardAlpha"/>
<feOffset dy="2"/>
<feGaussianBlur stdDeviation="2"/>
<feComposite in2="hardAlpha" operator="arithmetic" k2="-1" k3="1"/>
<feColorMatrix type="matrix" values="0 0 0 0 1 0 0 0 0 0.957917 0 0 0 0 0.579167 0 0 0 0.25 0"/>
<feBlend mode="normal" in2="shape" result="effect1_innerShadow_766_1383"/>
</filter>
</defs>
</svg>
