<svg width="97" height="115" viewBox="0 0 97 115" fill="none" xmlns="http://www.w3.org/2000/svg">
<path d="M48.4263 0C27.8539 0 11.1758 17.8716 11.1758 39.9162C11.1758 40.8401 11.2048 41.7563 11.2642 42.6648H22.3054C22.2224 41.7603 22.1809 40.8442 22.1809 39.9162C22.1809 24.3834 33.931 11.7927 48.4263 11.7927C62.9218 11.7927 74.6717 24.3836 74.6717 39.9162C74.6717 40.844 74.6302 41.7601 74.5472 42.6648H85.5884C85.6478 41.7564 85.6768 40.8403 85.6768 39.9162C85.6768 17.8714 68.9987 0 48.4263 0Z" fill="url(#paint0_linear_766_1529)"/>
<path d="M48.4266 5.08398C30.3958 5.08398 15.7783 20.7812 15.7783 40.1441C15.7783 40.9557 15.8037 41.7604 15.8559 42.5583H18.4142C18.3188 41.5884 18.2712 40.6061 18.2712 39.6111C18.2712 22.9561 31.7718 9.45563 48.4266 9.45563C65.0816 9.45563 78.5821 22.9563 78.5821 39.6111C78.5821 40.6059 78.5344 41.5882 78.4391 42.5583H80.9973C81.0496 41.7604 81.0749 40.9557 81.0749 40.1441C81.0749 20.7816 66.4574 5.08398 48.4266 5.08398Z" fill="url(#paint1_linear_766_1529)"/>
<path d="M81.1911 98.2317H15.54V36.9417C15.54 18.8126 30.2365 4.11621 48.3656 4.11621C66.4946 4.11621 81.1911 18.8126 81.1911 36.9417V98.2317Z" fill="url(#paint2_linear_766_1529)"/>
<path d="M77.3799 58.8845H86.864C92.3812 58.8845 96.8538 54.4118 96.8538 48.8946V44.0141C96.8538 38.4968 92.3812 34.0242 86.864 34.0242H77.3799V58.8845Z" fill="url(#paint3_linear_766_1529)"/>
<path d="M82.0169 115H14.7134C12.7068 115 11.0801 113.373 11.0801 111.367V105.235C11.0801 88.9803 24.2574 75.803 40.5123 75.803H56.2178C72.4727 75.803 85.65 88.9803 85.65 105.235V111.367C85.65 113.373 84.0234 115 82.0169 115Z" fill="url(#paint4_linear_766_1529)"/>
<path d="M19.474 58.8845H9.9899C4.47266 58.8845 0 54.412 0 48.8946V44.0141C0 38.4968 4.47266 34.0242 9.9899 34.0242H19.474V58.8845Z" fill="url(#paint5_linear_766_1529)"/>
<path d="M80.3048 34.0312L80.3027 34.0242H77.3799V58.8845H86.864C91.8494 58.8845 95.9808 55.2322 96.7315 50.4575L80.3048 34.0312Z" fill="url(#paint6_linear_766_1529)"/>
<path d="M68.0886 115H82.0169C84.0235 115 85.6502 113.373 85.6502 111.367V105.235C85.6502 88.9803 72.4729 75.803 56.218 75.803H40.5127C37.0357 75.803 33.7003 76.4076 30.6035 77.5147L68.0886 115Z" fill="url(#paint7_linear_766_1529)"/>
<path d="M48.3653 83.8565C64.8891 83.8565 78.2843 69.3101 78.2843 51.3662C78.2843 33.4224 64.8891 18.876 48.3653 18.876C31.8415 18.876 18.4463 33.4224 18.4463 51.3662C18.4463 69.3101 31.8415 83.8565 48.3653 83.8565Z" fill="url(#paint8_linear_766_1529)"/>
<path d="M19.4398 60.4236C17.5206 60.4236 15.9648 58.8679 15.9648 56.9486V35.9596C15.9648 34.0403 17.5206 32.4846 19.4398 32.4846C21.3591 32.4846 22.9148 34.0403 22.9148 35.9596V56.9484C22.9148 58.8677 21.3591 60.4236 19.4398 60.4236Z" fill="url(#paint9_linear_766_1529)"/>
<path d="M77.4135 60.4236C75.4942 60.4236 73.9385 58.8679 73.9385 56.9486V35.9596C73.9385 34.0403 75.4942 32.4846 77.4135 32.4846C79.3328 32.4846 80.8885 34.0403 80.8885 35.9596V56.9484C80.8883 58.8677 79.3326 60.4236 77.4135 60.4236Z" fill="url(#paint10_linear_766_1529)"/>
<path d="M35.0212 56.8629C32.605 56.8629 30.6465 54.9042 30.6465 52.488V50.2444C30.6465 47.8282 32.6052 45.8696 35.0212 45.8696C37.4374 45.8696 39.396 47.8284 39.396 50.2444V52.488C39.396 54.9042 37.4372 56.8629 35.0212 56.8629Z" fill="url(#paint11_linear_766_1529)"/>
<path d="M61.7107 56.8629C59.2945 56.8629 57.3359 54.9042 57.3359 52.488V50.2444C57.3359 47.8282 59.2947 45.8696 61.7107 45.8696C64.1269 45.8696 66.0854 47.8284 66.0854 50.2444V52.488C66.0854 54.9042 64.1269 56.8629 61.7107 56.8629Z" fill="url(#paint12_linear_766_1529)"/>
<path d="M74.5909 17.1957C73.6675 15.971 72.6604 14.8132 71.5781 13.7309C65.6359 7.78874 57.4313 4.11475 48.3648 4.11475C37.6496 4.11475 28.1339 9.25069 22.1415 17.1957C17.9988 22.6887 15.541 29.529 15.541 36.9413V42.5569C17.5935 42.7987 19.7155 43.0172 21.8941 43.2135C22.1372 43.2355 22.3624 43.079 22.4255 42.8433L23.456 38.9992C23.5889 38.5037 24.2918 38.5037 24.4247 38.9992L24.998 41.138C25.1308 41.6335 25.8338 41.6335 25.9666 41.138C26.0995 40.6425 26.8024 40.6425 26.9352 41.138L27.5197 43.3183C27.5753 43.5258 27.7553 43.6753 27.9699 43.6897C33.2037 44.0397 38.7149 44.2582 44.4175 44.3278C44.6469 44.3306 44.8504 44.1771 44.9097 43.9554L46.2384 38.9995C46.3712 38.504 47.0742 38.504 47.207 38.9995L48.5422 43.9797C48.6011 44.1995 48.8016 44.3526 49.0292 44.3522C56.9782 44.3359 64.5971 44.0293 71.6587 43.481C71.8709 43.4644 72.0484 43.3157 72.1034 43.11L73.2055 38.9995C73.3383 38.504 74.0412 38.504 74.1741 38.9995L75.1834 42.7637C75.2466 43 75.4727 43.1564 75.7163 43.1335C77.5874 42.9583 79.4148 42.7661 81.1907 42.5569V36.9411C81.1914 29.529 78.7336 22.6887 74.5909 17.1957Z" fill="url(#paint13_linear_766_1529)"/>
<path d="M81.191 36.9411V42.5567C79.414 42.7659 77.5868 42.9585 75.7176 43.1342C75.4721 43.1566 75.2462 43.0002 75.1847 42.7633L74.1747 38.9999C74.0408 38.5033 73.3379 38.5033 73.2068 38.9999L72.1049 43.1092C72.049 43.3155 71.8705 43.4636 71.6585 43.4803C64.5977 44.03 56.9791 44.3367 49.0284 44.3507C48.8025 44.3535 48.6016 44.2 48.5429 43.9795L48.3672 43.324V4.11475C57.4337 4.11475 65.6355 7.78874 71.5776 13.7309C72.66 14.8132 73.6671 15.971 74.5905 17.1957C78.7332 22.6887 81.191 29.529 81.191 36.9411Z" fill="url(#paint14_linear_766_1529)"/>
<path d="M68.7521 24.5028C68.7521 13.2436 59.6247 4.11597 48.3653 4.11597C37.1061 4.11597 27.9785 13.2433 27.9785 24.5028V43.6903C33.2097 44.0399 38.7181 44.2584 44.4174 44.3277C44.6467 44.3306 44.8503 44.1771 44.9096 43.9553L46.2383 38.9994C46.3711 38.5039 47.074 38.5039 47.2069 38.9994L48.5421 43.9796C48.601 44.1995 48.8015 44.3525 49.0291 44.3521C55.8994 44.338 62.5212 44.1062 68.7517 43.6896V24.5028H68.7521Z" fill="url(#paint15_linear_766_1529)"/>
<path d="M43.1016 85.4346H33.0558C19.5582 85.4346 8.57715 74.4536 8.57715 60.956V58.4746H13.0381V60.956C13.0381 71.9938 22.018 80.9737 33.0558 80.9737H43.1016V85.4346Z" fill="url(#paint16_linear_766_1529)"/>
<path d="M15.3063 70.2036C13.8583 67.4358 13.0379 64.2902 13.0379 60.9562V58.4749H8.57715V60.9562C8.57715 61.8562 8.62743 62.7448 8.7227 63.62L15.3063 70.2036Z" fill="url(#paint17_linear_766_1529)"/>
<path d="M41.4931 87.2277H40.4052C38.1307 87.2277 36.2871 85.3839 36.2871 83.1096C36.2871 80.835 38.1309 78.9915 40.4052 78.9915H41.4931C43.7677 78.9915 45.6112 80.8352 45.6112 83.1096C45.6112 85.3841 43.7673 87.2277 41.4931 87.2277Z" fill="url(#paint18_linear_766_1529)"/>
<defs>
<linearGradient id="paint0_linear_766_1529" x1="48.4254" y1="0.00176158" x2="48.4254" y2="42.6656" gradientUnits="userSpaceOnUse">
<stop offset="0.00520833" stop-color="#EC607E"/>
<stop offset="1" stop-color="#0BBBEF"/>
</linearGradient>
<linearGradient id="paint1_linear_766_1529" x1="48.4254" y1="42.1981" x2="48.4254" y2="1.24332" gradientUnits="userSpaceOnUse">
<stop stop-color="#FF4C54"/>
<stop offset="1" stop-color="#BE3F45"/>
</linearGradient>
<linearGradient id="paint2_linear_766_1529" x1="13.2312" y1="25.6538" x2="83.5001" y2="95.9227" gradientUnits="userSpaceOnUse">
<stop stop-color="#7A6D79"/>
<stop offset="1" stop-color="#554E56"/>
</linearGradient>
<linearGradient id="paint3_linear_766_1529" x1="87.115" y1="34.0253" x2="87.115" y2="58.8852" gradientUnits="userSpaceOnUse">
<stop stop-color="#62E1FB"/>
<stop offset="1" stop-color="#00A2F3"/>
</linearGradient>
<linearGradient id="paint4_linear_766_1529" x1="39.5267" y1="81.1613" x2="57.0416" y2="130.521" gradientUnits="userSpaceOnUse">
<stop stop-color="#0BBBEF"/>
<stop offset="1" stop-color="#71ABD6"/>
</linearGradient>
<linearGradient id="paint5_linear_766_1529" x1="9.73679" y1="34.0253" x2="9.73679" y2="58.8852" gradientUnits="userSpaceOnUse">
<stop stop-color="#62E1FB"/>
<stop offset="1" stop-color="#00A2F3"/>
</linearGradient>
<linearGradient id="paint6_linear_766_1529" x1="89.9007" y1="57.5163" x2="62.2126" y2="29.8283" gradientUnits="userSpaceOnUse">
<stop stop-color="#00A2F3" stop-opacity="0"/>
<stop offset="1" stop-color="#0075CD"/>
</linearGradient>
<linearGradient id="paint7_linear_766_1529" x1="60.2534" y1="104.717" x2="49.9043" y2="34.481" gradientUnits="userSpaceOnUse">
<stop stop-color="#893366" stop-opacity="0"/>
<stop offset="1" stop-color="#0BBBEF"/>
</linearGradient>
<linearGradient id="paint8_linear_766_1529" x1="32.0317" y1="35.0326" x2="72.3759" y2="75.3768" gradientUnits="userSpaceOnUse">
<stop stop-color="#FFDFCF"/>
<stop offset="1" stop-color="#FFA78F"/>
</linearGradient>
<linearGradient id="paint9_linear_766_1529" x1="32.6" y1="60.6845" x2="37.4635" y2="65.9429" gradientUnits="userSpaceOnUse">
<stop stop-color="#FFB92D"/>
<stop offset="1" stop-color="#F59500"/>
</linearGradient>
<linearGradient id="paint10_linear_766_1529" x1="90.5723" y1="60.6845" x2="95.4357" y2="65.9429" gradientUnits="userSpaceOnUse">
<stop stop-color="#FFB92D"/>
<stop offset="1" stop-color="#F59500"/>
</linearGradient>
<linearGradient id="paint11_linear_766_1529" x1="30.6463" y1="51.3663" x2="39.396" y2="51.3663" gradientUnits="userSpaceOnUse">
<stop stop-color="#7A6D79"/>
<stop offset="1" stop-color="#554E56"/>
</linearGradient>
<linearGradient id="paint12_linear_766_1529" x1="57.3359" y1="51.3663" x2="66.0854" y2="51.3663" gradientUnits="userSpaceOnUse">
<stop stop-color="#7A6D79"/>
<stop offset="1" stop-color="#554E56"/>
</linearGradient>
<linearGradient id="paint13_linear_766_1529" x1="27.1507" y1="11.735" x2="69.5819" y2="54.1662" gradientUnits="userSpaceOnUse">
<stop stop-color="#7A6D79"/>
<stop offset="1" stop-color="#554E56"/>
</linearGradient>
<linearGradient id="paint14_linear_766_1529" x1="62.4664" y1="25.2871" x2="44.6123" y2="40.3516" gradientUnits="userSpaceOnUse">
<stop stop-color="#554E56" stop-opacity="0"/>
<stop offset="1" stop-color="#433F43"/>
</linearGradient>
<linearGradient id="paint15_linear_766_1529" x1="41.8468" y1="18.4102" x2="57.8875" y2="51.1891" gradientUnits="userSpaceOnUse">
<stop stop-color="#554E56" stop-opacity="0"/>
<stop offset="1" stop-color="#433F43"/>
</linearGradient>
<linearGradient id="paint16_linear_766_1529" x1="25.8388" y1="39.8764" x2="25.8388" y2="76.6668" gradientUnits="userSpaceOnUse">
<stop stop-color="#F2F2F2"/>
<stop offset="1" stop-color="#C3C3C3"/>
</linearGradient>
<linearGradient id="paint17_linear_766_1529" x1="16.9654" y1="67.1334" x2="10.5339" y2="60.7019" gradientUnits="userSpaceOnUse">
<stop stop-color="#C3C3C3" stop-opacity="0"/>
<stop offset="1" stop-color="#777777"/>
</linearGradient>
<linearGradient id="paint18_linear_766_1529" x1="40.9483" y1="79.9774" x2="40.9483" y2="85.6363" gradientUnits="userSpaceOnUse">
<stop stop-color="#FFB92D"/>
<stop offset="1" stop-color="#F59500"/>
</linearGradient>
</defs>
</svg>
