<svg width="21" height="19" viewBox="0 0 21 19" fill="none" xmlns="http://www.w3.org/2000/svg">
<path d="M19.4181 7.60228L19.4175 7.60223L13.5954 7.10338L13.0115 7.05335L12.7698 6.51949L10.4685 1.43689C10.4679 1.43579 10.4644 1.4307 10.4542 1.42433C10.4409 1.41606 10.42 1.40839 10.3926 1.40839C10.3653 1.40839 10.3445 1.41604 10.3314 1.4242C10.325 1.42819 10.3212 1.43184 10.3192 1.43406L10.3175 1.43631L10.3171 1.43687L10.3171 1.43687L8.01546 6.51955L7.77372 7.05336L7.18986 7.10338L1.36836 7.60209C1.36822 7.6021 1.36807 7.60212 1.36793 7.60213C1.34772 7.60395 1.33246 7.60945 1.32187 7.61519L5.71132 11.2477L6.19195 11.6455L6.04602 12.252L4.75272 17.6278L19.4181 7.60228ZM19.4181 7.60228C19.438 7.60397 19.4531 7.60932 19.4636 7.61498L15.0731 11.2477L14.5924 11.6454L14.7383 12.252L16.0316 17.6278C16.0303 17.6288 16.0287 17.63 16.0269 17.6313L16.0268 17.6313C16.0134 17.6404 15.9934 17.6482 15.9683 17.6493C15.9432 17.6503 15.9218 17.6442 15.9066 17.6356L15.9043 17.6343L10.884 14.8019L10.3927 14.5248L9.9014 14.8018L4.87926 17.6342L4.87882 17.6344C4.86104 17.6445 4.84156 17.6496 4.8209 17.6496C4.79564 17.6496 4.77365 17.6422 4.75648 17.6306L19.4181 7.60228Z" stroke="#0BBBEF" stroke-width="2"/>
</svg>
