<svg width="21" height="19" viewBox="0 0 21 19" fill="none" xmlns="http://www.w3.org/2000/svg">
<path d="M20.2725 7.30157C20.1405 6.91614 19.7782 6.64239 19.3496 6.60594L13.5274 6.10709L11.2252 1.02231C11.0555 0.649667 10.6689 0.408447 10.2393 0.408447C9.80977 0.408447 9.42317 0.649667 9.25341 1.02319L6.95119 6.10709L1.12814 6.60594C0.700287 6.64326 0.338924 6.91614 0.206106 7.30157C0.0732885 7.68699 0.195949 8.10975 0.519605 8.37623L4.92044 12.0182L3.62274 17.4123C3.52778 17.8089 3.69092 18.2189 4.03966 18.4568C4.22711 18.5846 4.44643 18.6496 4.66758 18.6496C4.85827 18.6496 5.04741 18.6011 5.21717 18.5053L10.2393 15.6729L15.2596 18.5053C15.627 18.7138 16.0901 18.6948 16.438 18.4568C16.7869 18.2182 16.9499 17.808 16.855 17.4123L15.5573 12.0182L19.9581 8.37696C20.2818 8.10975 20.4053 7.68772 20.2725 7.30157Z" fill="#0BBBEF"/>
</svg>
