<svg width="21" height="19" viewBox="0 0 21 19" fill="none" xmlns="http://www.w3.org/2000/svg">
<path d="M20.1192 7.30157C19.9872 6.91614 19.6249 6.64239 19.1962 6.60594L13.3741 6.10709L11.0719 1.02231C10.9021 0.649667 10.5155 0.408447 10.086 0.408447C9.65645 0.408447 9.26985 0.649667 9.10009 1.02319L6.79787 6.10709L0.974815 6.60594C0.546967 6.64326 0.185604 6.91614 0.052786 7.30157C-0.0800318 7.68699 0.0426284 8.10975 0.366285 8.37623L4.76712 12.0182L3.46942 17.4123C3.37446 17.8089 3.5376 18.2189 3.88634 18.4568C4.07379 18.5846 4.29311 18.6496 4.51426 18.6496C4.70495 18.6496 4.89409 18.6011 5.06385 18.5053L10.086 15.6729L15.1063 18.5053C15.4737 18.7138 15.9367 18.6948 16.2847 18.4568C16.6336 18.2182 16.7966 17.808 16.7016 17.4123L15.4039 12.0182L19.8048 8.37696C20.1284 8.10975 20.252 7.68772 20.1192 7.30157Z" fill="#0BBBEF"/>
</svg>
